<svg xmlns="http://www.w3.org/2000/svg" width="399" height="399"><path d="M0 0h399v399H0V0Z" fill="#4BA7CF"/><path d="m296 36 2 1-1 10 2-1v-2h3l1-2c1 5.875 1 5.875 1 7h2l-.5-1.688c-.54-2.499-.57-4.762-.5-7.312h2l.313 3.813c.336 2.792.487 3.931 2.25 6.187L311 51h-6v2l2.375-.563C310 52 310 52 312 53v-2h2l.297-1.898.453-2.477.422-2.46C316 42 316 42 318.078 40.71L320 40l-1 8h-2l-1 5 .918-1.68c3.465-5.99 3.465-5.99 6.894-7.82L326 43l2 3c2.676 2.185 2.676 2.185 5 2h3l.875-1.938C338 44 338 44 340 43v5h2l-1 5h5l-1 7-4-1-.438 2.438C340 64 340 64 339 65l1 2h-2l1 7 5 1-1 3c-.094 1.852-.13 3.708-.125 5.563l-.008 2.94C342.833 89 342.833 89 344 91h-2c-1.158 2.947-1.158 2.947-1 6h2l2-4 2 4h-2v2l4 2-3 2c-3.432-.84-5.485-1.485-8-4a89.901 89.901 0 0 0-6-1v-8h2l3 3h2l-.875-3.867L337 84.125l-.578-2.55c-.27-1.21-.27-1.21-.547-2.442l-.508-2.254C335 75 335 75 335 73l-4-1 2 8h-2l-1-2c-1.231 2.463-1.072 4.28-1 7l4-1v-3h2v6c-2.647 1.46-3.894 2-7 2l-1 4h-3l-1-6h3v-2l-5 1c.875-4.75.875-4.75 2-7h2v4h2v-8h-3l.563-2.813c.678-3.2.678-3.2-.563-6.187l4-1 1 5 7 1-3-4-4 1-.25-1.875c-.563-2.27-.563-2.27-2.625-3.375-2.22-.916-2.22-.916-5.125-.75v2h2v10l-2 1-1-3-1.875.5C316 73 316 73 314 73c-2.316 1.885-2.316 1.885-2.25 5-.066 3.115-.066 3.115 2.25 5h1l.25-2.813C316 77 316 77 318.063 75.126L320 74v5l2 1h-2l-1 3.813-.563 2.144c-.542 2.184-.542 2.184-.437 5.043l4-1-2 4 3.938.375c2.214.21 2.214.21 4.062.625l1 2h-6v5l-7 3 1 3.313c1 3.687 1 3.687 1 6.687h2v5l-2 1 .563 1.875C319 125 319 125 318 127h-2v-6c-2.33.959-2.33.959-4 4l-3-1c-2.143.39-2.143.39-4 1l1 2 4-2 1 3-2.438.875c-2.695.858-2.695.858-3.562 3.125l4-1 2 3-1 3c-1.978.73-3.984 1.384-6 2a250.93 250.93 0 0 0-7.375 3.625l-4.273 2.164-2.19 1.114c-3.38 1.715-6.771 3.405-10.162 5.097l-4 2-24 12-2.003 1.002c-1.323.66-2.645 1.321-3.968 1.98-3.505 1.748-7 3.512-10.486 5.3l-2.209 1.124c-1.401.714-2.8 1.433-4.195 2.156-2.912 1.479-4.826 2.438-8.139 2.438l-.813 3.188C219 186 219 186 217.313 188.625c-1.59 2.338-1.59 2.338-1 5.188L217 196l-4-2a305.65 305.65 0 0 0-2 5l-1.375 2.875c-.916 4.579.862 6.282 3.375 10.125v2c1.819-1.43 3.63-2.869 5.438-4.313l3.058-2.425c2.717-2.082 2.717-2.082 3.504-5.262h2c-.463 4.292-2.902 6.03-6.063 8.75l-2.785 2.422L216 215l.875 1.898 1.125 2.477 1.125 2.46C220 224 220 224 220 226l1.586.793 10.932 5.467c2.695 1.349 5.392 2.696 8.095 4.03 3.743 1.848 7.455 3.737 11.125 5.726l2.006 1.084c1.304.707 2.605 1.418 3.904 2.134 3.714 2.016 7.348 3.451 11.352 4.766 1.98.998 3.94 2.04 5.875 3.125l2.93 1.633L280 256v3l9 2v2l6 2-2 4h2l1-2h4v2l2 1-2 3h-2l1 7h2l-1-5c2.51 1.255 2.871 2.5 4 5h3l1 1 1-2h6v2h-2l3 6-7-1-1 2 3-1-1 4 2 1c-1 3-1 3-4 5l5 1v2l3-1 .813 1.938c1.074 2.393 1.074 2.393 4.187 3.062v2h2l1 4 4 1-1 3h-2v-2l-5 1 .563 2.938L321 319l-1 1h4v3l-1 1a93.365 93.365 0 0 0-1 4h2l1-8h2l1 5 6 2-3 2c-.167 3.417-.167 3.417 0 7-.5 2.438-.5 2.438-1 4h2l.375-3.438L333 333l2-1 2 10-1-2c-3.122 1.309-3.122 1.309-5 4l3 1c-6.75.125-6.75.125-9-1v-3h-2l1 3-1.438 1.625c-2.35 3.573-1.98 7.203-1.562 11.375l1 2-1 3h2v-3h2v2l5-1 1-5 2 3 3 1 1-2h2l2 2 1-3h-3c-2-5.75-2-5.75-2-8h6l-3 2 8 1-1 3h-2c.776 3.075.776 3.075 3 5l1 2h3v2c-2.763-.523-5.326-1.109-8-2l1 8 4 1-1-3 4 1v2l3-1v2l-3 1c-1.209 2-1.209 2-2 4l-2-3h-3l-1 3-3 2 .563 1.813C342 382 342 382 341 385l4-5 2 4 1-1 3-1v5l2 1v3l2 1c-3.12 3.617-6.062 6.55-10.814 7.654-3.386.227-6.714.245-10.107.188l-3.918.018c-3.574.016-7.147-.012-10.72-.048-3.86-.03-7.72-.02-11.579-.014-6.682.003-13.363-.018-20.045-.058-9.66-.057-19.32-.075-28.98-.084-15.675-.015-31.349-.062-47.023-.128-15.224-.064-30.447-.114-45.67-.143l-2.846-.006-14.13-.027A54525 54525 0 0 1 32 399l1-3 3 1v-2l-3-1 3-3 1 3h3l-2-1c0-2 0-2 1-3l-1-3h-2v2l-2-1 1-2-4 1-1-2 4-1h-7l-1-3-10-1v-2h2v-4c1.938.375 1.938.375 4 1l1 2h5v3l5 1-.563-2.875C32 375 32 375 33 373h-5l1.938-.688c2.336-1.152 2.336-1.152 2.687-3.875L33 366l2-1 2 2-2 2c-.643 2.069-.643 2.069-1 4h2v-2h2v10h2c1.83-2.744 3.15-4.83 4-8-1.264-2.325-1.264-2.325-3-4l-2 2v-2l-3-1 4-1v-5l3 2v3h3v-3h-2l2-5 5 1-1-6 5-2 1 2 3.438.813C63 356 63 356 64.438 358.625L65 361c.553-2.076 1-3.844 1-6l3 1-1 2h2l1-6-5-3-1 2 2 1c-1 1.625-1 1.625-3 3-2.816-.35-5.272-1.15-8-2v-1h6v-2l-5-1v-4l1.875-.375c2.316-.497 2.316-.497 4.125-2.625h4l1 1a93.365 93.365 0 0 0 4-1h2l-1-4 4 1v-2h-5v4h-8v-3l-2.438-1.438C59 335 59 335 58.188 332.813L58 331l1.75-.375c2.273-.631 4.175-1.514 6.25-2.625v3h7l1 4 .938-2.938C76 329 76 329 77 328v-4l3 1h-2l2 2 2-1c1.294-4.635.79-7.579-1-12v2c-2.918 1.945-4.625 2.453-8 3l4 1h-2l1 8c-1.765-3.088-2-4.233-2-8l-2.25 1.063c-2.882.982-3.962.97-6.75-.063l1 3h3v2h-6c-.125-5.75-.125-5.75 1-8h-2v-2h-2l-1-5c6.148-2.376 6.148-2.376 10-1h2l1.25 1.375c2.331 2.165 4.728 2.752 7.75 3.625v-4h2l1-2 1 3h2l-.563-1.5c-.52-2.974-.066-5.563.372-8.527.24-2.477-.138-4.587-.809-6.973l1.875-.375c2.316-.497 2.316-.497 4.125-2.625 2.625.375 2.625.375 5 1v-2h-8l-1 3v-2h-2c1.654-3.583 3.68-6.81 6-10h2l2-5c2.375-.188 2.375-.188 5 0l2 3-1 1.688c-1.172 2.265-1.172 2.265-.938 4.75-.081 3.36-.964 4.958-3.062 7.562-2.688.813-2.688.813-5 1v3h2l1-2v2h3v-2l2-2 1-3 2 2-1 2c2.468-1.152 4.048-2.048 6-4v3l3-1-1.5-1.375C108 290 108 290 108 288c-3.01-.934-3.867-1.044-7 0 0-3 0-3 2-5v-3h4c-.188-2.445-.188-2.445-1-5-1.968-1.36-1.968-1.36-4-2l2-1-1-4h-2l1 3-1 2-5-1 1-2h2l1-3c1.672-1.098 1.672-1.098 3.75-2.063l2.176-1.023c2.336-1.03 4.699-1.978 7.074-2.914l1-1c2-.04 4-.043 6 0l1 3c2 1.209 2 1.209 4 2l-2-5h2v-2l-4 1c2.964-3.608 6.003-4.994 10.188-6.742 3.464-1.55 6.788-3.329 10.125-5.133l3.886-2.086 1.927-1.034a768.325 768.325 0 0 1 8.499-4.505l2.79-1.469c2.736-1.091 4.668-1.242 7.585-1.031l-1-2 7-1v2h5l1-2-5-1v-2l7-2c5.763 10.35 11.478 20.693 16.66 31.348 1.336 2.776 1.336 2.776 3.34 5.652a26531.782 26531.782 0 0 0 .065-41.623c.023-28.471-.105-56.919-1.065-85.377a6801.065 6801.065 0 0 0-8.118 16.498c-.92 1.872-1.84 3.743-2.764 5.613a2664.055 2664.055 0 0 0-3.962 8.065l-1.26 2.538-1.152 2.365-1.023 2.08c-.903 1.977-.903 1.977-.721 4.841v2h2l1.063 2.75c1.53 3.672 3.57 6.887 5.687 10.25 2.233 3.774 3.234 5.498 3.375 9.938-1.105 3.008-2.187 5.504-4.125 8.062h-2l-.188 2c-1.352 4.994-3.529 9.43-7.884 12.425-2.48 1.263-4.985 2.375-7.553 3.45-1.88.837-3.757 1.679-5.633 2.523l-2.884 1.285c-5.36 2.47-10.533 5.295-15.728 8.094-7.767 4.162-7.767 4.162-11.13 5.223-2.188-.875-2.188-.875-4-2h-2l1-4h2v-2c5.412-4 5.412-4 8-4l.25-1.625c1.049-3.32 2.578-5.66 4.75-8.375 2.625-.625 2.625-.625 5-1l.82-1.746c1.594-3.045 3.74-4.57 6.43-6.691l2.98-2.368L163 213a516.422 516.422 0 0 0 3.563-3.063C169 208 169 208 171 208l1-7-5-2v-2l-1.792-.839c-2.083-1.095-3.725-2.25-5.536-3.743l-1.9-1.556-2.022-1.674-4.305-3.532-2.225-1.832a2290.72 2290.72 0 0 0-10.595-8.637l-2.044-1.66c-4.281-3.479-8.58-6.932-12.893-10.37-4.275-3.43-8.524-6.891-12.77-10.355-3.036-2.475-6.076-4.94-9.168-7.345L99 143.313l-2.375-1.825L95 140v-2l-4-1v2l3 1c1.465 1.926 1.465 1.926 2.938 4.313 2.103 3.305 4.23 5.964 7.062 8.687v2h2a133.49 133.49 0 0 1 4.938 6.188 322.633 322.633 0 0 0 13.708 16.723C128 181.788 128 181.788 128 184h2c1.945 2.117 1.945 2.117 4.125 4.875l2.195 2.742C138 194 138 194 138 196l3 1c2.25 2.25 2.25 2.25 4 5-.19 4.814-2.876 7.865-5.813 11.438l-1.47 1.832c-4.083 5.048-8.313 9.97-12.563 14.876-4.381 5.068-8.437 10.278-12.154 15.854h-2l-.668 2.102c-1.66 3.613-4.033 6.327-6.644 9.273-6.51 7.34-6.51 7.34-11.688 15.625h-4l-1 2v-3h-3c.523 2.763 1.109 5.326 2 8h3l-2 6h-2v3l-2-1 .25-2.313c.042-2.833.042-2.833-2.25-4.5L79 280l1-4h-2c-.869 2.249-.869 2.249-1 5 1.892 2.636 1.892 2.636 4 5v3l-8 1-1 7h-2l-1-3-3 2-2-1 1 3h-2l-2 2-.688-1.938c-1.165-2.334-1.165-2.334-3.937-2.812L54 295l.563-1.875c.674-2.167.674-2.167-.563-4.125l2-2v3l3-3-1-3 2-1-3-1 1-3h2v-2h4v-2h2l-1-6h3l1-2 2 3-3 2h5v2h3v-9l-5 2-2-3-2-1-1-3-2-1-1 5h-3l-1-6h4v-3l-2-1-2 3c-1.868-5.487-2.236-10.222-2-16l4-1 2 6h3l1-4c4.677 1.477 4.677 1.477 6.313 4.125L74 248c-1.313 2-1.313 2-3 4h-3c.41 2.08.41 2.08 2 4 2.697.688 5.202.82 8 1l-1-1.813c-1.452-3.177-1.096-4.9 0-8.187l2.813.063c3.21.095 3.21.095 6.187-1.063l2 1v-2l-3-1c-.688-2.063-.688-2.063-1-4l-1 5h-2l1-4h-3l1 4-3 1-1-3 1-1-2-1v-2h3v-2h2v-2l2-1.188c2.426-1.777 2.426-1.777 2.25-5.5L84 225l3 1v-3l-3-1c3-2 3-2 6-3l1-3-7 3v-2l-3-1c3-1 3-1 6 0l-2-3h-3c1.255-2.51 2.5-2.871 5-4l-4-1v2c-1.813.688-1.813.688-4 1-1.75-1.438-1.75-1.438-3-3h3l1-2h4l-2-3 1-1-3-1v-2l-6 1-5-9 3-1v3l1-2c2-2 2-2 5.938-2.375 3.114.15 5.418.612 8.062 2.375l-1 5-7-1-1 2h-3v2l1.793-.438c4.132-.97 7.93-1.838 12.207-1.562v2h4l1-5-3-1c-1.688-2.063-1.688-2.063-3-4h3v-2l2-1h-4c-2.305-.718-4.529-1.574-6.781-2.441-2.522-.635-3.77-.317-6.219.441h-3c-.826-2.892-1-4.887-1-8l-7 4-1-2h3l-1-5 7-2 .188-2.313C74 166 74 166 76.438 164.188 79 163 79 163 81 163c1.338-.315 2.672-.646 4-1l2 3c-.62-3.465-.62-3.465-2-7-2.496-1.518-2.496-1.518-5-2l1-3 5-1-2-1c0-2 0-2 1-3l-3-4h5l-1-2h-7l-1-4-2.375-.188L73 137c-1.125-2.438-1.125-2.438-2-5l-3-2 3-2-2-1c-.594-2.649-.742-5.292-1-8h-3l1-3 5 1 1 4 1.875.188C76 122 76 122 77.25 124.561L78 127l-3-1-2 5 2 1v2l4-2 1 4 4 1c-1.149-3.446-2.191-3.916-5-6v-2c1.977-.73 3.98-1.394 6-2l2 1-1-3c.438-2.188.438-2.188 1-4l4 1-1-2c-1.287-3.86-1.138-6.942-1-11h-2l-.813 1.875C85 113 85 113 82 115l-2-1-1 2-3-3 2 5h-6v-2h2l-.625-2.188c-.44-3.293.289-4.826 1.625-7.812v-3l1.063-1.938c1.131-2.489.838-3.54-.063-6.062l4 1-1-3h3l1-2v2c3.01-2.007 3.63-2.839 5-6l3 4-4 2c2.715 2.307 2.715 2.307 5.188 1.625L94 94l1-4 7-2-1 3-2-1 1 3c3.375-1.186 5.647-2.276 8-5l-.063 2.313c-.066 2.789-.066 2.789 1.063 5.687h3l-1 3h2l1-3h1l-.188-2.688c.208-3.657 1.104-5.36 3.188-8.312l-3-1 5-3v2h4v-2l-6-1 1.938-.875c2.214-.953 2.214-.953 3.062-3.125h3v6l2 1-1-3c3.75-2 3.75-2 6-2l1-6c2.375.688 2.375.688 5 2 1.57 2.915 2 4.68 2 8h2l-1-8h7v4l2 1h-2c.776 3.075.776 3.075 3 5h-3v4h2l1-2c2.314-.73 4.648-1.401 7-2l-2-2c4.053-.982 7.839-1.082 12-1v2h2v-3h-2l-1-2-1.95-.367C164 77 164 77 162.919 75.18c-1.654-5.22-2.17-8.827-.918-14.18h2v2h2l1-2c0 3.204-.743 5.094-2 8l2 1 1 3 2 1v3l1-3h4v4l2 1-1-5h2c-.793-2.17-.793-2.17-2.848-2.633l-2.214-.492-2.223-.508L169 70v-1c2.27-.081 4.541-.14 6.813-.188l3.832-.105C183 69 183 69 184.949 70.297 186.618 73 186 75.877 186 79c1.352 2.248 1.352 2.248 3 4l1 3h-2l1 2 4-7-3-1v-2l5-1v8l4 1v-2l-3-1 2-1c-1.074-2.915-1.778-4.778-4-7l-3-3v4h-2l-.875-3.313c-.944-3.727-.944-3.727-3.125-6.687l1-2h2l1 2h3l2-3v3h4l-2 6 6 2 1-2h-4v-6l3-1 2 3 2-1-2-3h2l1-2 1 3 3 1-1 3 3.25.438c2.667.4 5.164.838 7.75 1.562l1-2-2.813.125C216 69 216 69 213 67v-2c1.455-.39 2.914-.76 4.375-1.125l2.46-.633L222 63c2 2 2 2 2.125 5.125L224 71l1-1v-2h3l1-5h2l1-2c1.75-1.688 1.75-1.688 4-3 2.75.313 2.75.313 5 1l1-2v7h3v-6l-2 1 1-4 4-1v5h3l-1 3h-2l-1 2c2.947-.102 2.947-.102 6-1 1.453-2.463 1.453-2.463 2-5h4l2 4h-2v3l4 1-2 2h-2l2 1-1 3 1.938.375L264 73l1 2h2l-2-5h-2l.5-2.438c.593-3.039.272-4.571-.5-7.562h3v-3l6 3 .375-2.25c.584-2.57 1.361-4.459 2.625-6.75l1-2c-1.95.195-1.95.195-4 1l-2 4V44h2l-1 4h7l-1-4 4 2 2-2c2.625-.625 2.625-.625 5-1l1 5h4l-1-3 3-1-.625-2.313C294 39 294 39 296 36Zm-93 48-.75 1.938C201 88 201 88 198.875 88.75L197 89l-1-3-5 2 1 3c1.81.73 1.81.73 3.938 1.063 3.86.735 3.86.735 6.062 2.937h2l-2 1 1 3 1-1 1 2 2-1-1-3 3-1h-3v-2l2-1-5-5 2-1-2-2Zm-30 153 1 2ZM70 334l1 2 2-1-3-1Zm8-190h2v2h3v2l-5-1v-3Z" fill="#419DC6"/><path d="M398 132h1v267h-52c4-6 4-6 6-8l-1.563-1.688C350 387 350 387 350.313 384.25L351 382c-2.51 1.255-2.871 2.5-4 5l-2-6-4 7-2-2 1.063-2.313c1.26-2.735 1.26-2.735-.063-5.687l1.938-.75c2.25-1.066 2.25-1.066 2.812-3.375L345 372c3.875.875 3.875.875 5 2l2-3h3l-3-1-1-2h-2v2l-4 1c-2.429-6.286-2.429-6.286-1-10l8 2v-2l-2.313-.375C347 360 347 360 344 358c-.188-2.625-.188-2.625 0-5l3-1-8-1 1-2-3-1 2 8h3l-1 4-2-1v-2h-2l-1 3c-3.875-1.75-3.875-1.75-5-4l-1 4-5 1v-2h-2v3h-2c-1.148-11.522-1.148-11.522-1-17l2 1 1-5h2v3h6l.813-1.938C333 340 333 340 336 339l-2-6-.438 2.375C333 338 333 338 332 340h-2v-12h2l-2.5-1.188L327 325c-.313-2.688-.313-2.688 0-5l-.938 2.875C325 326 325 326 324 328h-2l1-4h-2l1-2 2 1v-3l-5 1v-2h2v-3h-8v-1h7l1-4 4 1v2h2l-1-3-3-1v-4h-2v-2l-1.875-.313C317 303 317 303 315 300c-2.06-.724-2.06-.724-4-1v-2h-3l1-3h2l-1-2v-3l-2-1 1-3h4v2l2-1-2-2v-3h2v-2l-2.438 1C310 281 310 281 309 281l-1 2-2-3h-3l-2-4v4h-2l-1-7h2v-6l-7 2 1-3-2.5-1.375L289 263v-2l-2.813-.438C283 260 283 260 280 259l-1-3c-2.011-1.33-2.011-1.33-4.5-2.438l-2.766-1.316a650.333 650.333 0 0 0-9.191-4.086c-4.436-2.024-8.777-4.24-13.129-6.437a1066.325 1066.325 0 0 0-8.476-4.223 782.762 782.762 0 0 1-11.813-6.063l-3.242-1.69c-4.601-2.788-7.09-5.535-9.133-10.497l-1.016-2.422L215 215l2.371-2.082 3.066-2.73 1.565-1.37c2.511-2.248 3.913-3.563 4.998-6.818h-2l-.223 1.734c-1.055 3.075-2.77 4.404-5.214 6.516l-2.434 2.14C215 214 215 214 213 214c-5.181-7.824-5.181-7.824-4.5-12.25L210 199l1.438-2.875c.515-.701 1.03-1.403 1.562-2.125h3l-1-3c1.547-5.348 3.72-10.533 8.512-13.617 1.98-.784 3.984-1.508 6.004-2.184 4.063-1.398 7.782-3.197 11.609-5.137l1.916-.946c3.694-1.854 7.233-3.871 10.756-6.034 5.277-3.202 10.738-5.851 16.328-8.457 2.024-.956 4.047-1.913 6.07-2.871l2.982-1.41A693.11 693.11 0 0 0 291 144.563l1.864-.926a121.309 121.309 0 0 0 8.886-4.922L305 137l3 1c-2.884 3.044-5.281 5.154-9 7a126.491 126.491 0 0 0-4.5 3.375l-2.281 1.773c-2.28 1.837-2.28 1.837-4.375 4.079C286 156 286 156 284 156v2c-5.412 4-5.412 4-8 4l-.781 1.797c-1.317 2.38-2.645 3.713-4.719 5.453l-1.844 1.578C267 172 267 172 265 172l-1 3-4 1-1 3h-2v2l-4 1v2h-3v3l-2.688 1.188c-3.465 1.896-5.643 3.927-8.312 6.812-1.688 1.813-1.688 1.813-3 3h-2v2c-2 1.625-2 1.625-4 3 1.423 3.46 3.06 5.026 6.125 7.125 2.195 1.508 2.195 1.508 3.875 2.875v2l1.598.691c3.212 1.75 5.989 3.975 8.84 6.246l1.858 1.47c4.774 3.8 9.445 7.711 14.084 11.672 3.986 3.4 8.04 6.696 12.147 9.948 2.746 2.19 5.453 4.424 8.16 6.66 4 3.284 8.053 6.378 12.313 9.313l-1.328-1.66L279 236l1-2a639.945 639.945 0 0 1 3.5 3.875l1.969 2.18C287 242 287 242 287 244h2a372.785 372.785 0 0 1 4 6l2.25 2.25L297 254v2l2.438.375L302 257l1 2 3 1c-.115-1.73-.243-3.459-.375-5.188-.07-.962-.14-1.925-.21-2.917-.417-2.91-1.214-5.224-2.415-7.895h-3c-.277-8.3-.277-8.3 2-12v-2h2l1-3 1.938-.375c2.321-.442 2.321-.442 3.375-3 .964-2.706.964-2.706-.313-5.625l-2 1v-6h-2c-1.54-2.994-2.204-4.34-1.188-7.625L306 203l1-3h3l-1 6h2v4l2-1-1.063-1.688c-1.198-2.956-1.105-4.352.063-7.312l5-2c.894-2.548.894-2.548 1-5h2l-2-3v-3l1.813-.313c2.47-.776 3.51-1.758 5.187-3.687 3 1 3 1 4 2l3-8 4 2-2-1.875C332 175 332 175 332 173l-1.75.625c-2.77.462-3.896-.196-6.25-1.625l2-3c2.602-.293 2.602-.293 5.625-.188l3.04.083L337 169l2 4-2 1 4-1v-2h3v-2l-4-1 1-4 5 2-1 2 4-1v-2h3l2 5 2-1-1-3 1.5-1.375c1.726-1.501 1.726-1.501 1.5-3.625l2.313-.438c2.769-.525 2.769-.525 5.687-1.562 2.188.438 2.188.438 4 1l1-4 1 4 4 1v-2h-2l-.375-2.375c-.416-2.766-.416-2.766-2.625-4.625h10c2.406-3.94 2.406-3.94 2.688-8.375L383 142l3 1c1.044-3.133.934-3.99 0-7l3-2c.195 1.79.38 3.583.563 5.375l.316 3.023C390 145 390 145 389 147l2.313-.5C394 146 394 146 397 146l-2-1c-.391-2.063-.507-4.094-.656-6.188L394 137l-2-1h4l2-4Z" fill="#5FB7E1"/><path d="M235 234c7.544 3.243 14.787 6.935 21.984 10.877 3.949 2.136 7.733 3.735 12.016 5.123 1.98.998 3.94 2.04 5.875 3.125l2.93 1.633L280 256v3l9 2v2l6 2-2 4h2l1-2h4v2l2 1-2 3h-2l1 7h2l-1-5c2.51 1.255 2.871 2.5 4 5h3l1 1 1-2h6v2h-2l3 6-7-1-1 2 3-1-1 4 2 1c-1 3-1 3-4 5l5 1v2l3-1 .813 1.938c1.074 2.393 1.074 2.393 4.187 3.062v2h2l1 4 4 1-1 3h-2v-2l-5 1 .563 2.938L321 319l-1 1h4v3l-1 1a93.365 93.365 0 0 0-1 4h2l1-8h2l1 5 6 2-3 2c-.167 3.417-.167 3.417 0 7-.5 2.438-.5 2.438-1 4h2l.375-3.438L333 333l2-1 2 10-1-2c-3.122 1.309-3.122 1.309-5 4l3 1c-6.75.125-6.75.125-9-1v-3h-2l1 3-1.438 1.625c-2.35 3.573-1.98 7.203-1.562 11.375l1 2-1 3h2v-3h2v2l5-1 1-5 2 3 3 1 1-2h2l2 2 1-3h-3c-2-5.75-2-5.75-2-8h6l-3 2 8 1-1 3h-2c.776 3.075.776 3.075 3 5l1 2h3v2c-2.763-.523-5.326-1.109-8-2l1 8 4 1-1-3 4 1v2l3-1v2l-3 1c-1.209 2-1.209 2-2 4l-2-3h-3l-1 3-3 2 .563 1.813C342 382 342 382 341 385l4-5 2 4 1-1 3-1v5l2 1v3l2 1c-3.718 3.96-6.958 7.366-12.569 7.842-1.686.02-3.374.002-5.06-.047l-2.811.003c-3.042-.005-6.081-.06-9.123-.114-2.118-.013-4.236-.023-6.355-.03-5.557-.027-11.113-.096-16.67-.173-5.677-.072-11.355-.104-17.033-.14A5115.883 5115.883 0 0 1 252 399l-1-2h5l.184-2.773.253-3.602.247-3.586C257 384 257 384 258 382h-2l-2 2v-2h-3l1-2h2l-1-7 3-1-.625-1.813C255 368 255 368 257 365l-1-3c-.04-2.333-.044-4.667 0-7 2.326-.38 4.66-.713 7-1l1 1 1-2h-5v-4h-3v3h-3l-1-2-2 2v-3l-3 1v-10l-2-1v-3h2l1-2-1-1c-1.525-3.813-2.262-6.075-1-10-1.255-2.51-2.5-2.871-5-4l-.813 1.938C240 323 240 323 237 324l6 1 1 7-5-1v-4l-5-1-1 2h-2l1-7-1 1h-1l.063 3.5c.007 4.244-.463 8.302-1.063 12.5l2-2h3v2h6v-2l3-1 2-2c-.063 2.313-.063 2.313-1 5-3.501 1.88-6.008 3-10 3l-2.625.063C229 341 229 341 228 340a93.365 93.365 0 0 0-4-1v-3l-1-3h-5l-1 4 5 4-1.063 3.25c-1.004 4.004-1.004 4.004.063 7.75l7 2-1 2-3 1h7l1 3h4l-1-5 4-1v3l5 2-1 2-3 1 3 2h-11l6 1v1l-8 2-1 6h3v2h-10l-.313-3.375L221 369c-2.715-2.307-2.715-2.307-5.188-1.625L214 368c0-3 0-3 1.375-4.688C217 362 217 362 219 362v2c1.542-1.375 1.542-1.375 3-3v-2h-2v-3h-4v-5h-3v-6l3-1 1-2-3-1c-1.45-2.683-2.118-4.273-1.625-7.313L213 332h3l-2-5c2.648 0 4.516.172 7 1l1 2c2.025.652 2.025.652 4 1l1-2-3-1 1-2h2l-.5-2.875C226 320 226 320 226 318l-3-2v-2l-2-1 2.082.543 2.73.644 2.708.668c2.543.425 2.543.425 4.304-1.304L234 312l1 1 1-3-3-1-2 2c.875-4.75.875-4.75 2-7l-4-1 2-4c5.538-.37 5.538-.37 7.875 1.5L240 302v-5l3-1c-1.355-2.537-1.355-2.537-3-5h-2l1 2h2v3l-4-1-1 3-2-5h2l-.625-1.625c-.518-3.284.289-5.369 1.625-8.375l3-1-2-4 4-1-2-1 1-3-3-1v-2l-2-2c2.169.506 4 1 6 2v-3l-5-1 1.063-2.688c.955-3.374.909-5.009-.063-8.312h4l-2-4 2-1 3 1-1-3h2c-2.883-6.027-4.973-8.117-11-11v-3Zm-2 83 1 3Zm23 63 3 1 1 2 2-1v-4c-2.463 0-3.852.855-6 2Z" fill="#46A4CB"/><path d="M122 0h238l-1 5h-6l-1-2h-2v3l-7-1-1 3h-5l-1 5-5-1-1 3h-2l-1-2-6 1 1 2h-3l-1 3-4-1-1 2-1-1-2 4v-3h-4v2h-2l1-5h-4l1 1c.04 1.666.043 3.334 0 5h-3v-2l-4-1v2l-2.375.375c-2.766.416-2.766.416-4.625 2.625-1.84.703-1.84.703-3.938 1.25l-2.09.578C280 27 280 27 277 25v3l-5 1v2l-2 1 2 3h-2l-1 2c-2.563.625-2.563.625-5 1v-3c-2.053 1.842-2.053 1.842-3 4h-4l-1 3h-4l-1-3h-3l-1 2v-2h-7l-1 2v-3h-6l-1 5-3-1v-2l-3 2c-3 0-3 0-6-1l-3 1c0-2 0-2 1-3h-4l1 2c-3.133 1.044-3.99.934-7 0v2h-2v-2l-6 1-1 3-1-2-3.688.188c-3.89.02-6.148-.815-9.312-3.188l-1 5h-3v3l-3 1-1-1a69.603 69.603 0 0 0-4.063-.563L169 47l-1 2-3-2c3.435-2.29 4.985-2.178 9-2-1.178-3.353-2.194-5.755-5-8l-3-1-2 2c-.37-4.554-.37-4.554 1.5-6.813L167 30l-3 1a89.286 89.286 0 0 1-5-2h-2v-2h-5l1 3c-3 0-3 0-6-1l-1 4-.184-1.828-.254-2.422c-.08-.789-.162-1.578-.246-2.39-.292-2.184-.737-4.237-1.316-6.36l-2 4-2-6h-3c-1.688-2-1.688-2-3-4v2l-5-1-1 2c-2.992-2.48-3.742-4.779-4.688-8.5-.25-.96-.502-1.918-.761-2.906C122 3 122 3 122 0Z" fill="#5EB6E0"/><path d="M398 132h1v34h-3l1 6-3-2-2 2v-3l-3-1c-.563-1.75-.563-1.75-1-4a206.38 206.38 0 0 0-2-5l-.25 1.875C385 163 385 163 383 164.063l-2 .937-1 3 4 1c-3.287.8-4.71 1.097-8 0-1.075 2.652-2.095 5.284-3 8l-5 1v3l3-1 2 2-1 2-7-1v-4l-1 3-2.809-.254-3.628-.309-3.622-.316L351 181l-1 1c-1.666.04-3.334.043-5 0v2l2 1h-3l-1 3-1.75-.625c-2.645-.668-2.645-.668-6.25 1.625l10 2v2c-4.75 1.125-4.75 1.125-7 0l2 2 2 2-3 1c-1.833 1.167-1.833 1.167-3 3 .23 2.655.23 2.655 1 5-3 1-3 1-5 1l-1 3h-2v2l3 1-3 1-1 2h2c.688 2.25.688 2.25 1 5-1.438 2.313-1.438 2.313-3 4l3-1-2 5 2 1c-4.75 3-4.75 3-7 3l1 4-2.5 1.313L320 240v3h-3l-1-2h-3l1 3h-3l2 4 3-2c2.188.375 2.188.375 4 1v2h-2v2l4 1v2l-2 1 .063 3.375C320 262 320 262 319 264h3l2 5c1.975-.348 1.975-.348 4-1l1-2v6h2v3l2 2-3 5c1.15 1.298 1.15 1.298 4 2l1-2h-2v-3l3 1v3h2v3c.324 1.336.657 2.67 1 4-4.778 2.914-7.551 3.199-13 2l-1 2h-2c.506-2.169 1-4 2-6h2v-2c-3.278.752-3.278.752-5 4h-3v-2l-1.875-.875C315 286 315 286 313 284v-3h2v-2l-2.438 1C310 281 310 281 309 281l-1 2-2-3h-3l-2-4v4h-2l-1-7h2v-6l-7 2 1-3-2.5-1.375L289 263v-2l-2.813-.438C283 260 283 260 280 259l-1-3c-2.011-1.33-2.011-1.33-4.5-2.438l-2.766-1.316a650.333 650.333 0 0 0-9.191-4.086c-4.436-2.024-8.777-4.24-13.129-6.437a1066.325 1066.325 0 0 0-8.476-4.223 782.762 782.762 0 0 1-11.813-6.063l-3.242-1.69c-4.601-2.788-7.09-5.535-9.133-10.497l-1.016-2.422L215 215l2.371-2.082 3.066-2.73 1.565-1.37c2.511-2.248 3.913-3.563 4.998-6.818h-2l-.223 1.734c-1.055 3.075-2.77 4.404-5.214 6.516l-2.434 2.14C215 214 215 214 213 214c-5.181-7.824-5.181-7.824-4.5-12.25L210 199l1.438-2.875c.515-.701 1.03-1.403 1.562-2.125h3l-1-3c1.547-5.348 3.72-10.533 8.512-13.617 1.98-.784 3.984-1.508 6.004-2.184 4.063-1.398 7.782-3.197 11.609-5.137l1.916-.946c3.694-1.854 7.233-3.871 10.756-6.034 5.277-3.202 10.738-5.851 16.328-8.457 2.024-.956 4.047-1.913 6.07-2.871l2.982-1.41A693.11 693.11 0 0 0 291 144.563l1.864-.926a121.309 121.309 0 0 0 8.886-4.922L305 137l3 1c-2.884 3.044-5.281 5.154-9 7a126.491 126.491 0 0 0-4.5 3.375l-2.281 1.773c-2.28 1.837-2.28 1.837-4.375 4.079C286 156 286 156 284 156v2c-5.412 4-5.412 4-8 4l-.781 1.797c-1.317 2.38-2.645 3.713-4.719 5.453l-1.844 1.578C267 172 267 172 265 172l-1 3-4 1-1 3h-2v2l-4 1v2h-3v3l-2.688 1.188c-3.465 1.896-5.643 3.927-8.312 6.812-1.688 1.813-1.688 1.813-3 3h-2v2c-2 1.625-2 1.625-4 3 1.423 3.46 3.06 5.026 6.125 7.125 2.195 1.508 2.195 1.508 3.875 2.875v2l1.598.691c3.212 1.75 5.989 3.975 8.84 6.246l1.858 1.47c4.774 3.8 9.445 7.711 14.084 11.672 3.986 3.4 8.04 6.696 12.147 9.948 2.746 2.19 5.453 4.424 8.16 6.66 4 3.284 8.053 6.378 12.313 9.313l-1.328-1.66L279 236l1-2a639.945 639.945 0 0 1 3.5 3.875l1.969 2.18C287 242 287 242 287 244h2a372.785 372.785 0 0 1 4 6l2.25 2.25L297 254v2l2.438.375L302 257l1 2 3 1c-.115-1.73-.243-3.459-.375-5.188-.07-.962-.14-1.925-.21-2.917-.417-2.91-1.214-5.224-2.415-7.895h-3c-.277-8.3-.277-8.3 2-12v-2h2l1-3 1.938-.375c2.321-.442 2.321-.442 3.375-3 .964-2.706.964-2.706-.313-5.625l-2 1v-6h-2c-1.54-2.994-2.204-4.34-1.188-7.625L306 203l1-3h3l-1 6h2v4l2-1-1.063-1.688c-1.198-2.956-1.105-4.352.063-7.312l5-2c.894-2.548.894-2.548 1-5h2l-2-3v-3l1.813-.313c2.47-.776 3.51-1.758 5.187-3.687 3 1 3 1 4 2l3-8 4 2-2-1.875C332 175 332 175 332 173l-1.75.625c-2.77.462-3.896-.196-6.25-1.625l2-3c2.602-.293 2.602-.293 5.625-.188l3.04.083L337 169l2 4-2 1 4-1v-2h3v-2l-4-1 1-4 5 2-1 2 4-1v-2h3l2 5 2-1-1-3 1.5-1.375c1.726-1.501 1.726-1.501 1.5-3.625l2.313-.438c2.769-.525 2.769-.525 5.687-1.562 2.188.438 2.188.438 4 1l1-4 1 4 4 1v-2h-2l-.375-2.375c-.416-2.766-.416-2.766-2.625-4.625h10c2.406-3.94 2.406-3.94 2.688-8.375L383 142l3 1c1.044-3.133.934-3.99 0-7l3-2c.195 1.79.38 3.583.563 5.375l.316 3.023C390 145 390 145 389 147l2.313-.5C394 146 394 146 397 146l-2-1c-.391-2.063-.507-4.094-.656-6.188L394 137l-2-1h4l2-4Z" fill="#58B2DB"/><path d="m340 12 3 6c2.527.656 2.527.656 5 1l-1 3 5 1 1-4 1 3 3 1 2-4h1v5h2l1-4h2l.375 2.75c.55 2.86 1.089 4.81 2.625 7.25l2 1-6 3 1.5 1.375C367 37 367 37 367 39l4-1 1 2h-2l2 6h2l1-6 1 2 4-2-4-2 2.313-.438c2.769-.525 2.769-.525 5.687-1.562v2l2.375.25c2.625.75 2.625.75 4 2.563.712 2.492.487 3.774-.375 6.187l-3-6c-3.132.898-3.132.898-6 3 1.302 4.08 1.302 4.08 3 8l-2.438 1.875c-2.6 1.867-2.6 1.867-3.562 4.125h-2v2h-8v2l2.375-.625L373 61l2 2h-7l1 2 4-1 2 7-3 1 1 3h3l1 3c-3.01.934-3.867 1.044-7 0v2h-3v-9l-3 3-2-1c-1.002 3.583-1.002 3.583 0 7a140.266 140.266 0 0 1-2 7h2l1-5h3c1 3 1 3 1 6l1-2h2v2h4l1 3-1 2 3 3 1-2 2 2c-3.782 1.837-5.946 2.158-10 1l-2 4-1-3 1-2h-3l-1 3v-3h-2l.625 2.313c.628 4.501-3.173 8.01-5.625 11.687h-3l-3 10h2l1-3 4 2c-1.313 1.5-1.313 1.5-3 3h-3l-1 2-2-1v3l2 2h-3l1 4-5 1-1-7-1 1c.41 2.054.41 2.054 1 4l-2.375.25c-2.772.478-2.772.478-3.938 2.813L336 136h5l-2 13h-3l-1-5-7-1v2l5 1v3h-3v3l-3.688-.813c-2.179-.363-2.179-.363-4.312-.187-3.024 2.271-3.024 2.271-5 5l-1-4-3 1 1 2 1 3-3 3-1-4-4 1 2 4-6 1-1 3h-2l-2-2 1 2c2.444 6.246 2.444 6.246 1 10h-3l-.375 2.938L296 182l-2 1c-2.625-1.438-2.625-1.438-5-3l-3 4 3 7h-4l-2-6-2 1-1-2c-2.025-.652-2.025-.652-4-1-.762-1.64-.762-1.64-1-4 1.668-2.672 1.668-2.672 4.188-5.75.922-1.143 1.842-2.288 2.761-3.434l1.494-1.847c1.656-2.094 3.246-4.227 4.827-6.38l1.63-2.217c1.058-1.444 2.112-2.892 3.163-4.342 1.265-1.712 2.596-3.377 3.937-5.03h2l1-4h2l.75-1.688c1.48-2.736 3.185-4.989 5.25-7.312h2l-1-5h-4l1-3 5-1-2-2-4 2v-3c2.375-1.063 2.375-1.063 5-2l2 1 2-3h2v6h2c.151-3.629.151-3.629-1-7h3v-5h-2l-.402-1.898-.536-2.477-.527-2.46c-.458-2.194-.458-2.194-1.535-4.165l3.438-1.25c3.657-1.317 3.657-1.317 4.5-3.938L323 97l5-1-8-2v-3h-2c-1.05-3.968-.997-7.011 0-11l2-1-1-3c-2.463 2.463-2.998 4.707-4 8h-3c-.653-3.024-1.133-5.9-1-9 2.25-2.563 2.25-2.563 5-4 3 0 3 0 6 2l1-9h-2v-2l4-1v2l4 1v4l5-2 2 5c-3.375.125-3.375.125-7 0l-2-2c.375-2.125.375-2.125 1-4l-4 1 2 3c-.346 2.284-.967 3.934-2 6l6-1-1 2h-2v7l-3 1 1-5h-2l-2 7 5-1v2h-3l2 6 2-1c.656-2.527.656-2.527 1-5h7v-6l-2 4h-4l-1-6 3-2v3h2l-1-1.75C331 76 331 76 331 72h5l3 21-3 1-2-4h-2l1 7 3.438.875L340 99l1 2c2.98.747 2.98.747 6 1l1-1-5-1 2-1v-4l-2 3-4-2c1-3 1-3 2.625-4.438L343 90c-.305-1.34-.644-2.673-1-4a84.748 84.748 0 0 1-.063-4.75l.028-2.422L342 77h2v-2l-5-1a176.79 176.79 0 0 1-1-7l1-1-1-2 2-1c.652-2.025.652-2.025 1-4h2c1.053-2.631 1.053-2.631 1-4l-4-1v-6a280.14 280.14 0 0 0-1-4l-1.25 1.875c-1.836 2.23-3.036 3.192-5.75 4.125l-3-1 1-1-5-4c-3.499 1.397-4.709 2.713-6.25 6.125l-1.016 2.195L317 54l-2-1c.665-4.389 2.188-7.981 4-12l-1-1-1 4h-1l-2 7h-2v2h-7v-2l4-1-1-1.625c-1.227-2.914-1.142-5.244-1-8.375-.7 3.153-1 5.727-1 9l-4 1-1-2h3l-2-4h-3v2l3 1c-4.625 2.125-4.625 2.125-8 1l2-1-.063-2.75c.052-2.677.285-4.72 1.063-7.25-2.37 2.954-2.37 2.954-2 7l-2 2v2h-4l-2-4c-2.867.573-3.861.861-6 3l-4-3 1 4h-7v-2l4-1v-2l3-2 1-3h2v4l2 1-1-3h2l1-2c3-1 3-1 6 0l.125-2.25c1.234-3.878 3.396-4.833 6.875-6.75h2v3c2.874.417 2.874.417 6 0 1.79-2.427 1.79-2.427 3-5h2l1 5v-3h2v-2l1.875.563c2.167.674 2.167.674 4.125-.563v2c3.446-1.149 3.916-2.191 6-5h2l1-4 1 4h3v2h2l1-4 3 7 1-4 2 1v-2l-3-1 .563-2.75c.4-2.977.263-4.461-.563-7.25l1-1Z" fill="#49A3CA"/><path d="M90 136c4.514 1.419 6.714 3.667 10 7 2.047 1.795 4.1 3.565 6.188 5.313l1.739 1.463a571.327 571.327 0 0 0 12.276 9.994c3.642 2.904 7.25 5.85 10.86 8.792 4.887 3.981 9.8 7.919 14.796 11.762 3.547 2.776 7.004 5.661 10.477 8.528 3.021 2.436 6.127 4.724 9.3 6.957L167 197v2l5 2c.12 2.883.081 4.374-1 7-3.031 3.068-6.51 5.479-10 8a587.932 587.932 0 0 0-5.438 4.313l-2.433 1.925c-2.107 1.675-2.107 1.675-3.727 3.43C148 227 148 227 145 228c-1.244 1.962-1.244 1.962-2.313 4.313-2.32 4.414-4.263 6.426-8.687 8.687h-2v2h-2l-1 4h2l1-2v2c2.488.912 3.68 1.11 6.22.23l2.42-1.257 2.723-1.391 2.887-1.52 5.953-3.058 2.97-1.543c3.923-2.028 7.873-3.997 11.827-5.961l3.688-1.844C174 229 174 229 177.226 227.668c3.53-2.124 4.467-4.133 6.148-7.856l1.523-3.292L186 214h2c1.83-4.024 2.818-7.57 3-12-1.126-2.806-2.733-5.2-4.438-7.688C182 187.472 182 187.472 182 183h-2c-1.103-1.762-1.103-1.762-2-4 .532-1.865.532-1.865 1.64-3.809l1.233-2.234 1.377-2.394a1229.56 1229.56 0 0 0 2.797-5.083l1.474-2.69c2.979-5.62 5.606-11.416 8.253-17.198l1.195-2.569 1.045-2.283C198 139 198 139 200 138c.982 29.937 1.09 59.863 1.063 89.813l-.003 2.927c-.012 12.086-.032 24.173-.06 36.26-3.413-3.273-5.438-6.331-7.602-10.559l-.977-1.897a828.138 828.138 0 0 1-2.022-3.961 1078.314 1078.314 0 0 0-3.087-6.03c-5.42-10.578-5.42-10.578-7.312-15.553l-7 2v2l5 1-1 3-5-1v-2l-5 1-1 3-2.79.16c-5.672.813-10.547 3.686-15.585 6.278l-3.059 1.525c-5.08 2.159-5.08 2.159-8.566 6.037-1.665.342-3.332.674-5 1-2.472 1.16-2.472 1.16-4.813 2.563l-2.394 1.378c-.592.35-1.183.7-1.793 1.059h3l-1 3 3 2h-2v2c-1.938-.313-1.938-.313-4-1l-1-3c-2.916-.25-2.916-.25-6 0l-2 3c-1.995.363-3.996.692-6 1-3.595 1.55-6.436 3.009-9 6h3l1-3h4l-1 5 3 2c.188 2.625.188 2.625 0 5l-4 2v3h-2l1 2 5-1c3.875 5.75 3.875 5.75 5 8l-2 2v-2c-3.113 0-5.108.174-8 1l-1-3-1 4h-2v2h-6l-1-4h6l.438-1.875C98 290 98 290 99 288a530 530 0 0 0 1-5l1-3-4-3-1 2a128.234 128.234 0 0 1-5.5 5.375c-2.154 2.333-3.783 4.961-5.5 7.625l3-1a65.305 65.305 0 0 1 4.188-.063L96 291v2h-6v2l-4 2 2 7h-2v8h-2l-1-2-3 1v4c-1.316-.255-2.628-.53-3.938-.813l-2.214-.457L72 313l-1-3-3 1-2-1-1 2-1-2-4 2 1 2-1 2h2v2l-6 3 1-4h-4c-1.625-1.375-1.625-1.375-3-3-1.812-2.243-1.812-2.243-4.383-2.195l-2.742.07-2.758.055L38 312l-1-3h-3v-3l-5-2v-5h-2l-1 2-4-3 .5-2.875c.553-2.927.553-2.927.5-5.125h2l-.688-3.313C24 283 24 283 25.438 281.063L27 280l2 1v2l2 2-.5 2.438c-.856 2.79-.856 2.79 1.5 5.562l4-4 1 3-2 3h2l.938-1.938C39 291 39 291 40 290c2.67-.141 5.324-.042 8 0l-1-3v-2c-1.329-1.793-1.329-1.793-3-3.625l-1.688-1.914L41 278c1.02-3.773 1.659-4.802 5.125-6.813L49 270l-2-5h2l1-4h4l1 3 4-1 1 2c1.952-1.952 2.848-3.532 4-6l3 1v3h4v3c2.867-.573 3.861-.861 6-3 1.6 4.002.293 7.046-1 11-6.152-.586-6.152-.586-8-1l-1-2 3-2h-5l1 6h-2v2h-4l1 3h-3l-1 2h7l-1.938 1.188c-2.5 2.197-2.712 3.57-3.062 6.812l-4-1c.498 2.756.498 2.756 2 5v2h2l2 3 2-3 1-1h3l2-2 1 4h2l-.625-2.313C71 292 71 292 73 289c1.945-.293 1.945-.293 4.125-.188L81 289l-1.938-3.375c-1.067-1.86-2.103-3.706-3.062-5.625.938-2.125.938-2.125 2-4h2l.313 2.375c.463 2.955.463 2.955 3.687 4.625.125 2.563.125 2.563 0 5l1 1v-3l2-1a78.037 78.037 0 0 0 2-5h-3c-1.75-1.75-1.75-1.75-3-4 .313-2.25.313-2.25 1-4l1.75.625c2.856.476 3.806-.136 6.25-1.625 1.374-1.49 1.374-1.49 2.563-3.313 3.289-4.608 6.934-8.856 10.654-13.118 2.342-2.718 4.394-5.241 5.783-8.569h2l.777-1.715c1.363-2.548 2.96-4.608 4.785-6.847l2.172-2.676c1.468-1.79 2.937-3.579 4.407-5.367 2.293-2.793 4.577-5.593 6.859-8.395l1.455-1.77a891.114 891.114 0 0 0 4.545-5.605l1.458-1.767c2.55-3.19 4.383-5.701 4.542-9.858-1.855-2.854-4.034-5.034-6.438-7.438A90.294 90.294 0 0 1 130 186v-2h-2c-1.453-1.59-1.453-1.59-3.25-3.938a375.272 375.272 0 0 0-8.39-10.44l-1.925-2.308c-1.284-1.536-2.571-3.069-3.862-4.599l-1.792-2.153-1.623-1.933C106 157 106 157 106 155h-2c-1.705-2.029-3.3-4.06-4.875-6.188l-2.617-3.48-1.273-1.705a180.447 180.447 0 0 0-3.555-4.49C90 137 90 137 90 136Z" fill="#46A4CB"/><path d="m272 253 7 2 1 4 9 2v2l6 2-2 4h2l1-2h4v2l2 1-2 3h-2l1 7h2l-1-5c2.51 1.255 2.871 2.5 4 5h3l1 1 1-2h6v2h-2l3 6-7-1-1 2 3-1-1 4 2 1c-1 3-1 3-4 5l5 1v2l3-1 .813 1.938c1.074 2.393 1.074 2.393 4.187 3.062v2h2l1 4 4 1-1 3h-2v-2l-5 1 .563 2.938L321 319l-1 1h4v3l-1 1a93.365 93.365 0 0 0-1 4h2l1-8h2l1 5 6 2-3 2c-.167 3.417-.167 3.417 0 7-.5 2.438-.5 2.438-1 4h2l.375-3.438L333 333l2-1 2 10-1-2c-3.122 1.309-3.122 1.309-5 4l3 1c-6.75.125-6.75.125-9-1v-3h-2l1 3-1.438 1.625c-2.35 3.573-1.98 7.203-1.562 11.375l1 2-1 3h2v-3h2v2l5-1 1-5 2 3 3 1 1-2h2l2 2 1-3h-3c-2-5.75-2-5.75-2-8h6l-3 2 8 1-1 3h-2c.776 3.075.776 3.075 3 5l1 2h3v2c-2.763-.523-5.326-1.109-8-2l1 8 4 1-1-3 4 1v2l3-1v2l-3 1c-1.209 2-1.209 2-2 4l-2-3h-3l-1 3-3 2 .563 1.813C342 382 342 382 341 385l4-5 2 4 1-1 3-1v5l2 1v3l2 1c-3.12 3.575-6.04 6.557-10.772 7.626-3.222.181-6.378.162-9.603.058l-3.53-.03c-3.7-.04-7.396-.127-11.095-.216a2925.51 2925.51 0 0 0-7.55-.096c-6.152-.077-12.3-.194-18.45-.342v-1h5v-2h-2v-2l-6-2 4-2v-8l3 1-1 4h2v-3h3l1 2a327.76 327.76 0 0 0 1.563-3.875l.878-2.18c.813-2.001.813-2.001-.441-3.945v5l-6-2v-2l4-1c-1.06-3.182-2.476-6.017-4-9l-2 6-3-1 1-2c-.281-2.008-.61-4.01-1-6h2l1-2h-4v-3l4-2-1-2c-2.527-.656-2.527-.656-5-1l-.375-1.875c-.497-2.316-.497-2.316-2.625-4.125l-1-4 11 2v-2l-2-1 4-1c-1.842-2.053-1.842-2.053-4-3v-3h3v-2h3c-2.974-1.24-5.853-2.3-9-3-.313-6.878-.313-6.878 2-10 2.125-.75 2.125-.75 4-1h-2l-1-2h-4l-1-2h2v-2l3-1v-2h-6c.75-6.75.75-6.75 3-9l1-2-3-1 .438-1.723c1.182-4.917 1.667-9.234 1.562-14.277l1-1h-2v3h-2l-1 3-1-6-3-1 1-6 4 1-2-4h-3v-9l-4-1 1 2c.229 2.037.41 4.08.563 6.125l.253 3.32L283 276h2l-1 6c-1.875-.188-1.875-.188-4-1-1.783-3.298-2-5.177-2-9h-2l-1 2-3-3c3.287-.8 4.71-1.097 8 0l1-5-5-1-2-6h-2v-6Zm0 20 2 1Z" fill="#50ABD4"/><path d="M309 285h4v2l3.938.438c3.937.437 3.937.437 5.062 1.562l2-3h3v2h-2l-2 6h2l1-3c2 3 2 3 2 6l3-3 3 1c2.143-.39 2.143-.39 4-1v2l2 1h-4v2h-6c5.13 2.104 9.561 2.218 15 2l1-4 2 7-2 2-3-1 2 4h5c-1 3-1 3-4 5l1.938 1.313C350 317 350 317 351 320v-1c3.375-.188 3.375-.188 7 0l2 3v-6h2v2l4 2c-1.375 1.5-1.375 1.5-3 3h-2l-1 3-2.313-.063c-2.789-.066-2.789-.066-5.687 1.063l5 2c-3.323 3.938-3.323 3.938-6.75 4.25L348 333v2l5 1-1 3-1.875-1c-2.035-1.142-2.035-1.142-4.125-1l1.75 1.75L354 345l-2 3h2l1-4h4l-2.438-.813L354 342l-1-3 2.375-.438c2.59-.44 2.59-.44 4.625-1.562v4l2 1-1-5 5 3 1-3 3-1-.625 2.313c-.709 2.906-.709 2.906 1.625 5.687-1.875 1.063-1.875 1.063-4 2l-2-1v3c-2-1-2-1-5-3v6l2.688-1.063c5.12-1.449 5.12-1.449 8.312.063 1.644 2.544 2.858 5.2 4 8l3-6c3 3.75 3 3.75 3 6h2l1-5h1v7h4v2c3.161-1.37 3.993-1.99 6-5l1 5c-3.825 2.39-7.597 2.56-12 3l-3 11h-3l-1-5h2l-1-5-5 2v2l3-1c-.75 4.75-.75 4.75-3 7l-.438-2.313c-2.171-3.735-4.64-4.058-8.664-5.207L362 368v-3h2v2h2l-1-4h-3v-4l-3 1-1 3 2 2-2 1 2 1v2l6 1 1 4h2v3h4l1 3h-2l1.063 1.875L374 384l-1 2 3-1v4h2l-1 5-1-4h-2v-3h-4l4 5-2 4-4-1c0-12 0-12 2-14l-5-2v2l3 1c-1.45 3.381-3.373 5.457-6 8l-1 2 5 1-1 2h-2v3c-3.003 1.502-5.79 1.093-9.125 1.063l-3.883-.028L347 399c4-6 4-6 6-8l-1.563-1.688C350 387 350 387 350.313 384.25L351 382c-2.51 1.255-2.871 2.5-4 5l-2-6-4 7-2-2 1.063-2.313c1.26-2.735 1.26-2.735-.063-5.687l1.938-.75c2.25-1.066 2.25-1.066 2.812-3.375L345 372c3.875.875 3.875.875 5 2l2-3h3l-3-1-1-2h-2v2l-4 1c-2.429-6.286-2.429-6.286-1-10l8 2v-2l-2.313-.375C347 360 347 360 344 358c-.188-2.625-.188-2.625 0-5l3-1-8-1 1-2-3-1 2 8h3l-1 4-2-1v-2h-2l-1 3c-3.875-1.75-3.875-1.75-5-4l-1 4-5 1v-2h-2v3h-2c-1.148-11.522-1.148-11.522-1-17l2 1 1-5h2v3h6l.813-1.938C333 340 333 340 336 339l-2-6-.438 2.375C333 338 333 338 332 340h-2v-12h2l-2.5-1.188L327 325c-.313-2.688-.313-2.688 0-5l-.938 2.875C325 326 325 326 324 328h-2l1-4h-2l1-2 2 1v-3l-5 1v-2h2v-3h-8v-1h7l1-4 4 1v2h2l-1-3-3-1v-4h-2v-2l-1.875-.313C317 303 317 303 315 300c-2.06-.724-2.06-.724-4-1v-2h-3l1-3h2l-1-2v-3l-2-1 1-3Z" fill="#58B1DB"/><path d="m305 137 3 1c-2.884 3.044-5.281 5.154-9 7a126.491 126.491 0 0 0-4.5 3.375l-2.281 1.773c-2.28 1.837-2.28 1.837-4.375 4.079C286 156 286 156 284 156v2c-5.412 4-5.412 4-8 4l-.781 1.797c-1.317 2.38-2.645 3.713-4.719 5.453l-1.844 1.578C267 172 267 172 265 172l-1 3-4 1-1 3h-2v2l-4 1v2h-3v3l-2.688 1.188c-3.465 1.896-5.643 3.927-8.312 6.812-1.688 1.813-1.688 1.813-3 3h-2v2c-2 1.625-2 1.625-4 3 1.423 3.46 3.06 5.026 6.125 7.125 2.195 1.508 2.195 1.508 3.875 2.875v2l1.598.691c3.212 1.75 5.989 3.975 8.84 6.246l1.858 1.47c4.774 3.8 9.445 7.711 14.084 11.672 3.986 3.4 8.04 6.696 12.147 9.948 2.746 2.19 5.453 4.424 8.16 6.66 4 3.284 8.053 6.378 12.313 9.313l1-1a90.488 90.488 0 0 1 4 4v2l3 1v2c-3.684-.708-6.685-2.276-10-4l-3.063-1.5C291 262 291 262 288.375 260.375c-2.183-1.264-3.913-1.92-6.375-2.375v-2l-2-.25c-3.275-.819-5.872-2.105-8.852-3.656-2.064-1.051-4.146-1.99-6.273-2.906-5.247-2.302-10.348-4.885-15.46-7.465a1066.325 1066.325 0 0 0-8.477-4.223 782.762 782.762 0 0 1-11.813-6.063l-3.242-1.69c-4.601-2.788-7.09-5.535-9.133-10.497l-1.016-2.422L215 215l2.371-2.082 3.066-2.73 1.565-1.37c2.511-2.248 3.913-3.563 4.998-6.818h-2l-.223 1.734c-1.055 3.075-2.77 4.404-5.214 6.516l-2.434 2.14C215 214 215 214 213 214c-5.181-7.824-5.181-7.824-4.5-12.25L210 199l1.438-2.875c.515-.701 1.03-1.403 1.562-2.125h3l-1-3c1.547-5.348 3.72-10.533 8.512-13.617 1.98-.784 3.984-1.508 6.004-2.184 4.063-1.398 7.782-3.197 11.609-5.137l1.916-.946c3.694-1.854 7.233-3.871 10.756-6.034 5.277-3.202 10.738-5.851 16.328-8.457 2.024-.956 4.047-1.913 6.07-2.871l2.982-1.41A693.11 693.11 0 0 0 291 144.563l1.864-.926a121.309 121.309 0 0 0 8.886-4.922L305 137Z" fill="#B6D9F9"/><path d="M11 0h111l4 13 2 3 3-1 1-2v3h2l-1-6c1.743 2.297 3.4 4.599 5 7l2-2 .813 1.938C141.887 19.33 141.887 19.33 145 20c.73 2.066.73 2.066 1.188 4.563l.48 2.503L147 29l5 1v-3h5v2h2l1-3 1 3 2-2 2 3h2l-1 3h-2v3l-1.688-.563c-2.71-.512-4.636 0-7.312.563l-2-1v2l3.688-.375c2.657-.028 3.87.017 5.957 1.71C164 40 164 40 166 43l-2 4h-2v-2l-9-3v-2l-2-1-3-2v8l2 1v5c-3 0-3 0-4.75-1.688C144 47 144 47 144.312 44.25L145 42l-3-2h3l-.563-2.313C144 35 144 35 145 32h-4l1 4h-3l-1-4-2 6-5-2 2-2-3-1-2 4-1.375-1.5c-1.501-1.726-1.501-1.726-3.625-1.5v-5l-5-2v-2l-2 1v4l-5-1v3h-3l-.188-2.375L107 27c-2.476-1.375-2.476-1.375-5-2l-1 2c-1.125-3.75-1.125-3.75 0-6h-2l-1 2c-.845-3.378-1.108-5.675 0-9-1.29 2.58-2.106 5.26-3 8l-2-1v-2l-1.875.625L89 20l-2-2 2 3 2 3-4 2-5-5-2 1-3-9 2-2h-3l-1 7h-2c1.952 1.952 3.532 2.848 6 4v2h-3v6h-2v-2l-2-1v-3l-2-1v-3l-1.75 1.125c-2.25.875-2.25.875-4.5 0L62 20v-3l-3-1-1-3c-3.118.646-3.118.646-4 3l2 1c-1.188 1.563-1.188 1.563-3 3-2.688-.313-2.688-.313-5-1v2l3 1c-1.286 2.572-2.334 3.01-5 4-2.25-.375-2.25-.375-4-1v-3l-4 1v-8l2-1c-1.184-1.416-1.184-1.416-4.563-1.063L32 13l-1-3-3.188 1.063c-3.607.887-5.338.99-8.812-.063V9l3-1c-2.867.573-3.861.861-6 3-3.077-4.308-3.077-4.308-2.688-7.813L14 1l-3-1Z" fill="#5DB5DF"/><path d="M168 0h146l-2 1-1 2h-2v2h-2l-1 3-1-3h-2l-1 2h-3l-1 3h-2l-1-1-3 1-1-1-2 2c-2.125.625-2.125.625-4 1l3 1h-2l-1 4-2.313-1.125L280 15l-3 2-2 1-2.188-1.125c-4.05-1.26-6.119.278-9.812 2.125l-3 1-2-1v2h-2l-1-3-2 3h-2v2h-3l1-4-2 2-2.375-.5c-3.109-.592-3.926.06-6.625 1.5l-3-1-1 2c-4.554.37-4.554.37-6.813-1.5L226 20c1 1 1 1 2 4-2.867-.573-3.861-.861-6-3l-2 1v-3h-4l-2 4v-2h-4l-2-1h-3v5l-4-2 3-1v-3h-5l1 4c-3-1-3-1-4.063-3L195 18l-2-1v2l2 1c-1.666.043-3.334.04-5 0l-1-1-2 2c-2.375-.313-2.375-.313-5-1l-2.313-.563L178 19v-2l-1.75-.438L174 16l-2.125-.5C170 15 170 15 168 14l1 4-4-2c-.154-9.077-.154-9.077 1-13l2-2V0Z" fill="#8DCCEF"/><path d="M90 136c4.514 1.419 6.714 3.667 10 7 2.047 1.795 4.1 3.565 6.188 5.313l1.739 1.463a571.327 571.327 0 0 0 12.276 9.994c3.642 2.904 7.25 5.85 10.86 8.792 4.887 3.981 9.8 7.919 14.796 11.762 3.547 2.776 7.004 5.661 10.477 8.528 3.021 2.436 6.127 4.724 9.3 6.957L167 197v2l5 2c.12 2.883.081 4.374-1 7-3.031 3.068-6.51 5.479-10 8a587.932 587.932 0 0 0-5.438 4.313l-2.433 1.925c-2.107 1.675-2.107 1.675-3.727 3.43C148 227 148 227 145 228a226.32 226.32 0 0 0-3.336 3.39C131.728 241 131.728 241 128 241l-.602 1.652c-1.98 3.325-4.813 5.495-7.773 7.91l-1.75 1.46C109.466 259 109.466 259 107 259v2c-1.981 1.368-4.055 2.503-6.152 3.684C98.69 265.947 98.69 265.947 98 269c-2.063.688-2.063.688-4 1 1.499-3.334 3.434-5.931 5.75-8.75 6.186-7.243 6.186-7.243 11.25-15.25h2l.777-1.715c1.363-2.548 2.96-4.608 4.785-6.847l2.172-2.676c1.468-1.79 2.937-3.579 4.407-5.367 2.293-2.793 4.577-5.593 6.859-8.395l1.455-1.77a891.114 891.114 0 0 0 4.545-5.605l1.458-1.767c2.55-3.19 4.383-5.701 4.542-9.858-1.855-2.854-4.034-5.034-6.438-7.438A90.294 90.294 0 0 1 130 186v-2h-2c-1.453-1.59-1.453-1.59-3.25-3.938a375.272 375.272 0 0 0-8.39-10.44l-1.925-2.308c-1.284-1.536-2.571-3.069-3.862-4.599l-1.792-2.153-1.623-1.933C106 157 106 157 106 155h-2c-1.705-2.029-3.3-4.06-4.875-6.188l-2.617-3.48-1.273-1.705a180.447 180.447 0 0 0-3.555-4.49C90 137 90 137 90 136Z" fill="#B6D9F9"/><path d="M122 0c6.514-.05 13.029-.086 19.543-.11a2047.3 2047.3 0 0 0 6.653-.04c3.182-.025 6.364-.036 9.546-.045l3.018-.032h2.79l2.463-.014C168 0 168 0 170 2h-2c-1.97 4.927-2.18 8.78-2 14h2v-2l1.875.563c2.167.674 2.167.674 4.125-.563l1 2h4l1.438 1.563L182 19c3.342-.245 4.605-.605 7-3l1 3c1.947-.842 1.947-.842 3-2 3.4 1.133 4.053 2.125 6 5l-1-4 6 1v3l-2 1 3 2v-7l1.813.5c2.3.611 2.3.611 5.187.5v2h3l1-2h4l1 2 2-3 2 5c.105-2.21.105-2.21-1-5h2v2l3 1 3 1 1-1c3-1 3-1 6 0l3-1 1-2 1 2 3 1 1-3 2 1c-1 3-1 3-2 4l6 1-1 2-5-1 7 3v3h-3l-2 1c-3-2-3-2-5-5l-1 1 2 2-6 1-1-2-2-1-1 2c-6.875-1.875-6.875-1.875-8-3l-2 2c-3.063-.25-3.063-.25-6-1l-1-2c-2.277 2.815-2.277 2.815-2 6l-1.875-1.438c-2.032-1.586-2.032-1.586-4.125-2.562v2h2l-1 2h-3l.625 1.875L210 36l-2 2-3.375-1.063c-3.428-1.31-3.428-1.31-5.625.063l-1 2v-2l-6 1 1-2h3v-4l-4-1 2-1v-2h-3v3c-.922.2-.922.2-1.863.402l-2.45.535-2.425.528c-2.407.534-2.407.534-5.262 1.535l-3-1-1 3v-3l-3 1 1 3 2 1 2 1 1 3h-3l-1-2-2-.5-2-.5-1-2-3-1-2 2c-.37-4.554-.37-4.554 1.5-6.813L167 30l-3 1a89.286 89.286 0 0 1-5-2h-2v-2h-5l1 3c-3 0-3 0-6-1l-1 4-.184-1.828-.254-2.422c-.08-.789-.162-1.578-.246-2.39-.292-2.184-.737-4.237-1.316-6.36l-2 4-2-6h-3c-1.688-2-1.688-2-3-4v2l-5-1-1 2c-2.992-2.48-3.742-4.779-4.688-8.5-.25-.96-.502-1.918-.761-2.906C122 3 122 3 122 0Z" fill="#61B8E1"/><path d="M199 138h1c.982 29.937 1.09 59.863 1.063 89.813l-.003 2.927c-.012 12.086-.032 24.173-.06 36.26-3.416-3.275-5.42-6.319-7.566-10.559l-.97-1.897c-1.017-1.99-2.022-3.986-3.026-5.982-1.01-1.99-2.023-3.98-3.037-5.97-.92-1.807-1.833-3.616-2.747-5.426-1.587-3.147-1.587-3.147-3.41-5.93C179 229 179 229 179.649 226.52L181 224l1.29-2.676 1.335-2.637 1.352-2.675L186 214h2c1.83-4.024 2.818-7.57 3-12-1.126-2.806-2.733-5.2-4.438-7.688C182 187.472 182 187.472 182 183h-2c-1.103-1.762-1.103-1.762-2-4 .532-1.865.532-1.865 1.64-3.809l1.233-2.234 1.377-2.394c.935-1.692 1.866-3.386 2.793-5.083l1.474-2.69c2.992-5.63 5.648-11.423 8.345-17.198l1.204-2.569 1.061-2.283C198 139 198 139 199 138Z" fill="#B7D9FA"/><path d="M11 0h70l-1 3h-3l1 6h-4v2h2l-1 7h-2c1.952 1.952 3.532 2.848 6 4v2h-3v6h-2v-2l-2-1v-3l-2-1v-3l-1.75 1.125c-2.25.875-2.25.875-4.5 0L62 20v-3l-3-1-1-3c-3.118.646-3.118.646-4 3l2 1c-1.188 1.563-1.188 1.563-3 3-2.688-.313-2.688-.313-5-1v2l3 1c-1.286 2.572-2.334 3.01-5 4-2.25-.375-2.25-.375-4-1v-3l-4 1v-8l2-1c-1.184-1.416-1.184-1.416-4.563-1.063L32 13l-1-3-3.188 1.063c-3.607.887-5.338.99-8.812-.063V9l3-1c-2.867.573-3.861.861-6 3-3.077-4.308-3.077-4.308-2.688-7.813L14 1l-3-1Z" fill="#56B0D9"/><path d="M318.45-.114h2.79l3.018.016 3.085.005c3.26.005 6.521.018 9.782.03 2.207.006 4.414.01 6.621.014C349.164-.038 354.582-.02 360 0l-1 5h-6l-1-2h-2v3l-7-1-1 3h-5l-1 5-5-1-1 3h-2l-1-2-6 1 1 2h-3l-1 3-4-1-1 2-1-1-2 4v-3h-4v2h-2l1-5h-4l1 1c.04 1.666.043 3.334 0 5h-3v-2l-4-1v2l-2.375.375c-2.766.416-2.766.416-4.625 2.625-6.568 2.491-6.568 2.491-10.129 1.27a100.49 100.49 0 0 1-4.039-2.243c-2.22-1.245-4.317-1.713-6.832-2.027v2h-2l-2-2h-3l-1 2v-2h-2v2l-4-1c.375-2.438.375-2.438 1-5l2-1v4h2l-1-3 2-1 2 2 2-2c2-.688 2-.688 4-1l2 1 1-3 1 2c2.527.656 2.527.656 5 1l2-3c4.75 1.875 4.75 1.875 7 3l1-4-3-1 2-2h4l2-2c2.428 0 4.63.5 7 1l1-2h3l1-3 2 1 1-3 1 3h2l-1-4h4c2.374-1.187 3.802-1.12 6.45-1.114Z" fill="#5EB7E1"/><path d="m148 33 .313 1.938L149 37l3 1 1.25 1.875c2.491 3.025 5.105 3.75 8.75 5.125v2l3-2c-1.074-2.915-1.778-4.778-4-7-2.655-.565-5.291-.738-8-1v-2c7.625-1.25 7.625-1.25 11 1l2-2v2l4 1v2l3 1 1 5-3.438.438c-3.37.174-3.37.174-4.562 1.562h15l-1-3h3l2-4 3.125 1c3.368.97 6.358 1.164 9.875 1h2c3.819-.266 3.819-.266 7-2 2.007.287 4.009.619 6 1l1-3h7l-4 2v2l1.75-1.063c2.685-1.118 3.53-.702 6.25.063l2.063-.625L229 40c1.75 1.438 1.75 1.438 3 3l-2 4-1-3-3 2 2 1v2l2 1c-3.767 0-4.912-.235-8-2v2l2 1v3l-2 2c-3.125-.375-3.125-.375-6-1l2-2a70.134 70.134 0 0 0-1-4l1-2-4-1v2h-3l1 8h-4l-1-5-3 2-3-2 1 3-1.938.813C197.67 55.886 197.67 55.886 197 59l-1-3h-2l-1 3h-3v2l-3-1-1-4-3-1 1-2-1.875 1.5C180 56 180 56 178 56c-1.67.318-3.337.65-5 1l1 2c-2.867-.573-3.861-.861-6-3v2c-4.385 3-4.385 3-7 3v-5h-2c-5-5.357-5-5.357-5-9l-3 1v-3h-3c-1.286-8.571-1.286-8.571 0-12Z" fill="#4FA9D1"/><path d="M201 0h92l-2 1v2h-2l-1 2-4-1v2c-5.385 2.129-5.385 2.129-8.688 1.438L273 7c-1.835 1.334-1.835 1.334-3 3l-2.875-1.063C264.129 7.65 264.129 7.65 262 9c-2.125-.438-2.125-.438-4-1l-1 2V8l-3 3 2 1c-4.75 1-4.75 1-7 1l-3 1v-4h-5l2 2v3l-1.75-1c-2.449-1.27-2.449-1.27-6.25-1l3 1 1 3c-1.814-.28-3.626-.575-5.438-.875l-3.058-.492L228 15l-1-2-2 1-1-1v2h-2v-4l-2 3-6-1-1 2-1.813-.5c-2.3-.611-2.3-.611-5.187-.5l-1-2 3-2-3 1c-4 0-4 0-6-1-.24-4.21.316-5.79 2-10Z" fill="#B5D9F9"/><path d="M122 0c6.514-.05 13.029-.086 19.543-.11a2047.3 2047.3 0 0 0 6.653-.04c3.182-.025 6.364-.036 9.546-.045l3.018-.032h2.79l2.463-.014C168 0 168 0 170 2h-2c-1.97 4.927-2.18 8.78-2 14h2v-2l1.875.563c2.167.674 2.167.674 4.125-.563 1.097 3.29.8 4.713 0 8h-4l-1 3c-4.508-.53-7.42-2.252-11-5v-2h-2v3l3 1c-1.813.688-1.813.688-4 1-1.75-1-1.75-1-3-3-.188-3.688-.188-3.688 0-7l-3 1-2 19h-1l-.184-1.828-.254-2.422c-.08-.789-.162-1.578-.246-2.39-.292-2.184-.737-4.237-1.316-6.36l-2 4-2-6h-3c-1.688-2-1.688-2-3-4v2l-5-1-1 2c-2.992-2.48-3.742-4.779-4.688-8.5-.25-.96-.502-1.918-.761-2.906C122 3 122 3 122 0Z" fill="#76C1E9"/><path d="M289 159c-13.163 17.85-13.163 17.85-19 23h-2l-2 2-3-3-1 2 2 3 4-1a298.11 298.11 0 0 1-2.75 4.438l-1.547 2.496c-1.882 2.283-2.819 2.721-5.703 3.066v-2h-5l-1-3h-2c.498 2.756.498 2.756 2 5h2c.73 1.977 1.394 3.98 2 6l-1 2h-21v-5h2l1-3c3.444-3 3.444-3 6-3l1-3c3.063-1.188 3.063-1.188 6-2v-3h3v-2l4-1v-2a104.024 104.024 0 0 1 5-4l2.688-2.25C267 171 267 171 269 171l1-3a173.788 173.788 0 0 1 5-4l2.688-2.688c3.947-3.947 5.946-3.206 11.312-2.312Z" fill="#429EC7"/><path d="M231 204c19.622-1.74 19.622-1.74 24.908.983 3.247 2.75 5.175 6.28 7.092 10.017.839 1.24 1.69 2.472 2.563 3.688L267 221l-1 2h-2v2l-2 1h2v2h-3l3 2-2 2-2.781-2.195-3.719-2.93-1.93-1.523a325.838 325.838 0 0 0-10.445-7.915L240 215v-2l-1.625-.688c-3.16-1.746-5.643-3.952-8.375-6.312l1-2Z" fill="#45A0C9"/><path d="M178 227v3l-5 1v2l5 1-1 3-5-1v-2l-5 1-1 3-2.79.16c-5.672.813-10.547 3.686-15.585 6.278l-3.059 1.525c-5.08 2.159-5.08 2.159-8.566 6.037-1.665.342-3.332.674-5 1-2.472 1.16-2.472 1.16-4.813 2.563l-2.394 1.378c-.592.35-1.183.7-1.793 1.059h3l-1 3 3 2h-2v2c-1.938-.313-1.938-.313-4-1l-1-3c-2.916-.25-2.916-.25-6 0l-2 3c-1.995.363-3.996.692-6 1-5.04 2.075-7.581 4.163-10 9h-3l-1-4c2.076-.553 3.844-1 6-1l.125-1.75c1.33-3.419 3.772-4.477 6.875-6.25h2v-2c1.328-1.156 1.328-1.156 3.25-2.5 3.807-2.758 7.455-5.675 11.063-8.688l3.05-2.542c1.429-1.23 2.845-2.479 4.176-3.813 2.04-2.035 4.272-3.785 6.524-5.582l2.66-2.133C140 232 140 232 142 231c-.933 4.103-1.641 5.716-5 8.375-3 1.625-3 1.625-5 1.625v2h-2l-1 4h2l1-2v2c2.488.912 3.68 1.11 6.22.23l2.42-1.257 2.724-1.391 2.886-1.52 5.945-3.054 2.97-1.542c3.966-2.051 7.961-4.042 11.96-6.029 1.253-.625 2.505-1.252 3.758-1.878L178 227Z" fill="#48A2CB"/><path d="m272 189 2 1v3l2-1v3l2 1-1.063 2.75c-1.1 3.741-1.1 3.741.063 7.25l3 1v-2l3 1-4 7-2-1-2 5 5 2c-1 3-1 3-2 4a178.655 178.655 0 0 0-2 4c-3.875-1.75-3.875-1.75-5-4l1.938-.375L275 222l1-2h-3c-1-4.875-1-4.875-1-6-1.646 1.228-1.646 1.228-3 3 .228 2.163.228 2.163 1 4-2-1.375-2-1.375-4-3v-2h-2c-2.016-2.23-2.016-2.23-4.25-5.188l-2.266-2.917C256 205 256 205 256.704 202.262L258 200l1-2h2l1-2v8l1-3h2l.375-1.625c.747-2.839 1.678-5.597 2.625-8.375l1 2c2.053-1.842 2.053-1.842 3-4Z" fill="#46A3CB"/><path d="m205 18 4 1h3v2h3l1-2h4l1 2 2-3 2 5c.105-2.21.105-2.21-1-5h2v2l3 1 3 1 1-1c3-1 3-1 6 0l3-1 1-2 1 2 3 1 1-3 2 1c-1 3-1 3-2 4l6 1-1 2-5-1 7 3v3h-3l-2 1c-3-2-3-2-5-5l-1 1 2 2-6 1-1-2-2-1-1 2c-6.875-1.875-6.875-1.875-8-3l-2 2c-3.063-.25-3.063-.25-6-1l-1-2c-2.277 2.815-2.277 2.815-2 6l-1.875-1.438c-2.032-1.586-2.032-1.586-4.125-2.562v2h2l-1 2-7-1v-2l-3-1 3-1v-9Z" fill="#6EBDE6"/><path d="M191 28h3l-1 3 3 1v4l-3 1h6l1-2 2.813.5c3.143.577 3.143.577 6.187.5v-4l-4-1h6a88.406 88.406 0 0 1 1 5l-1 1 3 2 1 2c-3.133 1.044-3.99.934-7 0v2h-2v-2l-6 1-1 3-1-2-3.688.188c-3.89.02-6.148-.815-9.312-3.188l-1 5h-3v3l-3 1-1-1a69.603 69.603 0 0 0-4.063-.563L169 47l-1 2-3-2c3.435-2.29 4.985-2.178 9-2l-1-5 2-1v3h3c-1.295-2.06-1.295-2.06-3-4h-3l-1-5c2.547-1.274 3.428-.802 6.125-.063l2.195.59L181 34l1-2h2l2-2v2l5-1v-3Z" fill="#55AFD8"/><path d="M318 1c-.969 5.461-.969 5.461-2 8-2.625 1.5-2.625 1.5-5 2V9l-8 5-1-1-3.438.5C295 14 295 14 293 13l-.688 1.875C290.599 17.651 289.06 18.03 286 19c-3.118.646-3.118.646-4 3-4.949 1.054-10.11 1.467-15 0v2h-2l-2-2h-3l-1 2v-2h-2v2l-4-1c.375-2.438.375-2.438 1-5l2-1v4h2l-1-3 2-1 2 2 2-2c2-.688 2-.688 4-1l2 1 1-3 1 2c2.527.656 2.527.656 5 1l2-3c4.75 1.875 4.75 1.875 7 3l1-4-3-1 2-2h4l2-2c2.428 0 4.63.5 7 1l1-2h3l1-3 2 1 1-3 1 3h2l-1-4h4c2.49-1.245 3.41-.777 6 0Z" fill="#73BFE8"/><path d="m221 226 14 7-2 1-1 2-6-2v-3c-1.94.26-1.94.26-4 1a71.183 71.183 0 0 0-4.125 7.25l-1.05 2.027c-3.036 5.92-4.978 11.067-5.825 17.723a89.247 89.247 0 0 1-1 4l5 1-1-7 3-1v-5l7 1v3h2l1-2 1 3-2 2v-2h-2l.5 3.813c.85 6.486.85 6.486-.5 9.187h-8v-3l-2.313.563C211 267 211 267 208 266c-1.73-1.273-1.73-1.273-3-3 .074-2.227.074-2.227.688-4.625l.574-2.414C207 254 207 254 209 253c.889-1.637.889-1.637 1.688-3.688 2.346-5.528 5.081-10.837 7.824-16.175 1.642-3.196 1.642-3.196 2.488-7.137Z" fill="#43A1C9"/><path d="M346 0h14l-1 5h-6l-1-2h-2v3l-7-1-1 3h-5l-1 5-5-1-1 3h-2l-1-2-5 1-2-3h3l1-4c1.247-.2 1.247-.2 2.52-.402l3.293-.535 3.269-.528c2.967-.474 2.967-.474 5.918-1.535l1-3h2v2l3-1 1-2Z" fill="#57B0DA"/><path d="M122 0h13a75.56 75.56 0 0 1 1 14h-2v2l-5-1-1 2c-2.992-2.48-3.742-4.779-4.688-8.5-.25-.96-.502-1.918-.761-2.906C122 3 122 3 122 0Z" fill="#6EBDE6"/><path d="M9 105h2v2l1.938-.563L15 106c1 1 1 1 1.063 3.563L16 112h3v2l5-2 1 2h-2v2l2 1c-.75 2.438-.75 2.438-2 5-2.125.813-2.125.813-4 1l-1-3-3-2 3 4-3 5-4-1v-4h2l1-2-3 1v-4l-2-1 4-1v-2l-6-1 2-1v-6Z" fill="#47A5CC"/><path d="M246 190h4l.438 1.938c.372 2.037.372 2.037 1.562 3.062h2c.73 1.977 1.394 3.98 2 6l-1 2h-21v-3h3v-2h2l.688-1.875c1.691-2.74 3.304-3.175 6.312-4.125v-2Z" fill="#419DC6"/><path d="M185 195h3c4 5.94 4 5.94 4 10.688-1 3.312-1 3.312-5 7.312l-11-8 1-2 2 1 .188-2.375L180 199c2.563-1.313 2.563-1.313 5-2v-2Z" fill="#409BC5"/><path d="M250 190h2l2 2c2.069.643 2.069.643 4 1v2l6-3c.826 2.892 1 4.887 1 8l-2 1c-.652 2.025-.652 2.025-1 4l-2-2h2l-1-5h-2c-1.673 3.38-1.673 3.38-2 7 1.941 3.361 4.363 6.164 7 9l-1 2a313731972.174 313731972.174 0 0 1-5.273-5.957C256 208 256 208 254 205c-2.617-.417-2.617-.417-5.664-.293l-3.399.03c-1.175.024-2.35.05-3.562.076l-3.586.04c-2.93.036-5.86.085-8.789.147.813-1.938.813-1.938 2-4l3-1v3h18l1-2v2h2l-1-8-5 1 1-6Z" fill="#47A4CB"/><path d="M319 0h27l-2 4-3-1 1-2h-2l-1 4a445.552 445.552 0 0 1-6.25 1.625l-3.516.914c-3.466.494-4.338.168-7.234-1.539-2.72.787-2.72.787-5 2 .523-2.763 1.109-5.326 2-8Z" fill="#60B8E2"/><path d="m262 28 6 3v6l-4 1v-3c-2.053 1.842-2.053 1.842-3 4h-4l-1 3h-4l-1-3h-3l-1 2v-2l-3-1h2v-5l8 1v-2l8 1-3-3 3-2Z" fill="#58B1DB"/><path d="M112 147c6.976 1.993 13.135 4.969 19.502 8.395 1.797.94 3.645 1.78 5.498 2.605l3-1-1-3 5-2 1 1 3.5.438 3.5.562 1 2 2.25-.188c3.242.222 4.472.91 6.75 3.188v3l-2.117-.438-2.758-.562-2.742-.563c-2.307-.497-2.307-.497-4.383-.437l-1-4h-2v2l-6 1 2 3c-4.877-.62-8.758-2.708-13.063-4.938l-2.142-1.091c-5.462-2.785-5.462-2.785-8.041-4.225-2.05-1.007-2.05-1.007-5.754-.746l-2-4Zm42 14 2 1Z" fill="#4EA7D0"/><path d="m303 142-1 4h-2l-1 4h-2l-.727 1.64c-1.6 2.967-3.567 5.457-5.648 8.11-3.012 3.85-5.988 7.72-8.883 11.66l-1.635 2.218a778.104 778.104 0 0 0-3.171 4.342c-1.265 1.713-2.595 3.377-3.936 5.03h-2c1.255-4.14 3.318-6.732 6.137-9.887 2.317-2.628 4.525-5.335 6.738-8.05l2.367-2.903L288 160l-4-2v-2l1.688-.688c2.97-1.686 4.92-3.866 7.312-6.312a292.74 292.74 0 0 1 4.188-3.813l2.042-1.832C301 142 301 142 303 142Z" fill="#5FB4DD"/><path d="m270 168 1 3-1 2-3 1 3 3h-2l-1 3v-2l-2.313.938A110.556 110.556 0 0 1 259 181v2h-2v2l-3 1-1 2h2v2l-2.375-.125c-2.786-.162-2.786-.162-4.625 2.125l-1-1-1 2-6 3-1 2h-2v2h-3v-2h2l1-3c3.444-3 3.444-3 6-3l1-3c3.063-1.188 3.063-1.188 6-2v-3h3v-2l4-1v-2a104.024 104.024 0 0 1 5-4l2.688-2.25C267 171 267 171 269 171l1-3Z" fill="#4EA7CF"/><path d="M172 202c3.777 2.189 7.296 4.603 10.813 7.188l2.957 2.167L188 213l-3 1-2-1-1.75 2.063C179 217 179 217 177 217c-2.519-1.26-4.123-2.922-6-5l-1 4c-2-3-2-3-3-6l1.938-.625c2.411-1.27 2.411-1.27 2.812-4.5L172 202Z" fill="#49A3CC"/><path d="m68 37 2 3-2 3h-2l1 6 3 1v3l1.875-.938L76 50v6l-2.813-.25c-3.222-.087-3.222-.087-5 2C67.072 59.865 66.42 61.655 66 64l-6-2v-3l3 1 2-4-1-1c-.04-2.333-.042-4.667 0-7h-3l.5-1.75c.645-2.517.645-2.517.5-6.25l1.875-.375c2.316-.497 2.316-.497 4.125-2.625Z" fill="#46A4CB"/><path d="m302 15 1 2h2l-1 5h2v-2l3 1-2 4-3-1c-2.952.24-2.952.24-6.125.813-1.075.17-2.15.342-3.258.519L292 26l-1 2c-3.716.2-4.772.152-8-2l1 5c-6.75-.75-6.75-.75-9-3h2v-3l1.75.582c2.63.489 3.802.114 6.25-.895l2.102-.847a70.019 70.019 0 0 0 4.273-2.09L293 21l2 1v-2h5l1 2 1-4-2-1 2-2Z" fill="#56AFD9"/><path d="m165 10 1 6h2v-2l1.875.563c2.167.674 2.167.674 4.125-.563 1.097 3.29.8 4.713 0 8h-4l-1 3c-4.508-.53-7.42-2.252-11-5v-2h2v-2l3-1-1-4c2-1 2-1 3-1Z" fill="#6EBDE6"/><path d="M178 227v3l-5 1v2l5 1-1 3-5-1v-2l-5 1-1 3-2.79.16c-5.672.813-10.547 3.686-15.585 6.278l-3.059 1.525c-5.08 2.159-5.08 2.159-8.566 6.037-2.649.594-5.292.742-8 1 3.008-2.402 6.068-4.15 9.516-5.855l3.27-1.626 3.464-1.707 3.53-1.75c2.33-1.157 4.66-2.311 6.992-3.464 4.208-2.083 8.406-4.182 12.603-6.286l3.648-1.824c.983-.49 1.965-.982 2.977-1.488l4-2Z" fill="#5CB2DB"/><path d="M289 159c-3.267 4.389-6.549 8.753-10 13-3.37-1.123-4.532-2.532-7-5 4.793-6.636 8.66-10.001 17-8Z" fill="#459FC8"/><path d="m106 13 2 1-1 2h2l.438 1.813c.45 1.749.99 3.474 1.562 5.187l-3-1-1 2 6 1 1 5-3-1v3h-3l-.25-2.375L107 27l-2-.813c-2-1.187-2-1.187-2.625-2.94-.386-2.182-.58-4.04-.375-6.247 1.938-2.5 1.938-2.5 4-4Z" fill="#57B1DB"/><path d="m0 1 4 2v5h2V5l5-2c-.875 4.75-.875 4.75-2 7l4 2H9v12l-3-1c-1.117-4.69-.806-7.538 1-12L0 9V1Z" fill="#58B1DB"/><path d="m376 104-3 6 3 2-3 5-4-1 1-3 3 1v-2c-1.781-.864-1.781-.864-4-1a90.576 90.576 0 0 0-4 4h-3v-2l-4-2 2-1 1-2 5 2 1-3c3.213-1.886 5.246-3 9-3Z" fill="#47A5CC"/><path d="M272 283h14l-1 3 1 3 2-3v10h-2l-1-2-1 5h-2v-6l-2-1 3-1-1-6c-2.034 1.415-2.904 2.55-3.422 4.98-.24 2.002-.413 4.011-.578 6.02l-2-1 1-4-4 1 2-3 2 1c-.195-1.95-.195-1.95-1-4-1.984-1.284-1.984-1.284-4-2v-1Z" fill="#4FAAD3"/><path d="M160.625-.125 164 0l1 5h-2l-1 3c-2.602 1.648-3.862 2-7 2v2h2l-1 4c-2.938-.75-2.938-.75-6-2-.875-2.125-.875-2.125-1-4h3l1-1 2-1-.125-2.875c.186-4.655 1.152-5.091 5.75-5.25Z" fill="#86C9ED"/><path d="m40 77 1 3 3 1v3h-3l-1 3c-3.199.089-5.927-.09-9-1l1 4h-2l-1-4 3-2c1.213-3.054 1.213-3.054 2-6 1.207.03 1.207.03 2.438.063 2.496.233 2.496.233 3.562-1.063Z" fill="#47A5CC"/><path d="M353.125 300.938 356 302l-3 2c.703 2.51.703 2.51 2 5 2.041.887 2.041.887 4 1l1-8c2 2 2 2 2.012 4.348l-.325 2.714-.3 2.723C361 314 361 314 360 315c-2.67.141-5.324.042-8 0v-2l5-1h-5l-4-11c2-1 2-1 5.125-.063Z" fill="#58B1DB"/><path d="M92 359h11l1 3h-2v-2h-2v3h-2l1 2c2.947-.102 2.947-.102 6-1 1.453-2.463 1.453-2.463 2-5l3 1v2h-2l1 5h-2l-1 3h-2v-4l-1.25 1.563C101 369 101 369 98.937 368.813 97 368 97 368 95 366v-3l-2-1h5v-2l-1.875.625L94 361l-2-2Z" fill="#46A5CC"/><path d="m31 254 3 1v3l3 1-2 2 2.063 1.75L39 265c-.25 2.25-.25 2.25-1 4v-2l-9 1-1-4 3-1-2-1v-4l-5 1 1-4 1 2c1.658.373 3.326.707 5 1l1 1 1-2h-2v-3Z" fill="#4DA9D1"/><path d="m221 226 14 7-2 1-1 2-6-2v-3c-1.94.263-1.94.263-4 1a70.52 70.52 0 0 0-4.063 7.188l-1.025 2.001c-.985 1.93-1.95 3.869-2.912 5.811l-1.746 3.488L211 253c-1-3-1-3 .547-6.512.724-1.397 1.46-2.789 2.203-4.175 2.826-5.345 5.227-10.61 7.25-16.313Z" fill="#61B7E0"/><path d="m271 213 3 1-1 6h3c-1.875 3.875-1.875 3.875-3 5l1.313 1.46c.556.633 1.113 1.264 1.687 1.915l1.688 1.898C279 232 279 232 279 234h-2c-3-3.462-3-3.462-3-6h-2v-2h-2a197.417 197.417 0 0 1-3-5l-1.688-1.688L264 218v-2c2 0 2 0 3.625 1.5L269 219l-1-3h2l1-3Z" fill="#5DB3DB"/><path d="M390 59c3 3.625 3 3.625 3 7l-2 1-1 3a177.537 177.537 0 0 1-2 4c-2.95-4.61-4.55-7.365-4-13l6-2Z" fill="#47A4CC"/><path d="M258 198c0 3 0 3-.715 4.89-.53 2.263-.53 2.263 1.149 4.47l2.003 2.39 1.997 2.422L264 214l-1 2a313731972.174 313731972.174 0 0 1-5.273-5.957C256 208 256 208 254 205c-2.617-.417-2.617-.417-5.664-.293l-3.399.03c-1.175.024-2.35.05-3.562.076l-3.586.04c-2.93.036-5.86.085-8.789.147.813-1.938.813-1.938 2-4l3-1v3h18l1-2v2h2l.938-1.938C257 199 257 199 258 198Z" fill="#62B7E0"/><path d="m179 181 1 2h2c1.718 3.982 3.41 7.965 5 12h-2v2l-5 2-3-8 2-1c.994-3.345 1.103-5.69 0-9Z" fill="#469FC8"/><path d="M376 171c1.417-.027 2.833-.047 4.25-.063l2.39-.035c2.273.094 4.174.505 6.36 1.098h2v2l4 2c-5.378 1.793-10.516.997-16 0h-3l-1-3 1-2Z" fill="#57B0DA"/><path d="M293 154c0 3.463-.445 3.897-2.598 6.441l-1.67 2.006-1.795 2.115c-4.538 5.442-8.805 10.867-12.667 16.813L273 183h-2c1.255-4.14 3.318-6.732 6.137-9.887 2.317-2.628 4.525-5.335 6.738-8.05l2.367-2.903L288 160l-4-2v-2l4-1-1 3c3.182-1.755 3.182-1.755 6-4Z" fill="#64B8E1"/><path d="M90 129c1.675.286 3.344.618 5 1l-2 1c2.601 7.804 9.76 10.385 16.625 13.875L112 146c-2 1-2 1-4.969.145l-3.531-1.333-3.531-1.292c-3.209-1.643-3.632-2.35-4.969-5.52-3.06-.816-3.06-.816-6-1-.042-2.333-.04-4.667 0-7l1-1Z" fill="#53ABD3"/><path d="m79 293 .375 1.875c.497 2.316.497 2.316 2.625 4.125 1.545 2.661 2 3.85 2 7l-2 1-1 3h-4c1-3 1-3 2-4l-5-2 4-1-1-1a235.648 235.648 0 0 1-1-7l3-2Z" fill="#409CC5"/><path d="m373 167-4 1v2l4 1-3 1-1 2-1.813-.563c-2.351-.658-2.351-.658-5.187.563l-2 3v-4h-2c0-2 0-2 1.188-3.563 2.236-1.773 4.02-2.007 6.812-2.437 2.667-1.333 4.167-.671 7 0Z" fill="#5EB7E1"/><path d="M129 296c1.063 1.813 1.063 1.813 2 4l-1 3c-1.916.169-3.833.335-5.75.5l-3.234.281c-2.334.17-4.676.219-7.016.219l1-4 7 1v-2l2.938-.375L128 298l1-2Z" fill="#46A5CC"/><path d="M192 253c2.187 2.796 3.992 5.633 5.688 8.75.436.8.873 1.598 1.324 2.422L200 266l2-3h3c-.255 1.316-.53 2.628-.813 3.938l-.457 2.214L203 271l-3 1-1-4-4-1-.25-2.188c-.898-3.365-2.461-5.228-4.75-7.812l2-4Z" fill="#49A2CB"/><path d="M31 74h2l-2 8h-2l-.25 3.375C28 89 28 89 25.937 90.438L24 91v-3l-4-1 1-7 3-1v4c2.468-1.152 4.048-2.048 6-4 .648-2.57.648-2.57 1-5Z" fill="#46A5CC"/><path d="m214 165 4 1c1.17 3.98 2.257 7.916 3 12-2-1-2-1-3.125-4.063L217 171c-.224 2.925-.224 2.925 1 5l-9-1c2-4 2-4 5-5v-5Z" fill="#49A4CD"/><path d="M150 0h7c.347 4.168-.353 5.824-3 9l-1 3-4-2c-.125-6.625-.125-6.625 1-10Z" fill="#6DBDE5"/><path d="m107 259 2 1-1 2 6-2c-.625 1.938-.625 1.938-2 4a89.56 89.56 0 0 1-6 1c-5.04 2.075-7.581 4.163-10 9h-3l-1-4c2.076-.553 3.844-1 6-1l.125-1.75c1.33-3.419 3.772-4.477 6.875-6.25h2v-2Z" fill="#64B5DD"/><path d="M208 152c2.526 3.128 4.424 6.296 6 10l-1 3-1-2c-1.895-.465-1.895-.465-4.063-.625L204 162l-1 5h-3v-2h3l-1-3 1-3h2l1-3 1 2c1.158-2.947 1.158-2.947 1-6Z" fill="#4AA4CD"/><path d="M179 303h2l1.367 6.055c.538 2.152.538 2.152 2.633 3.945-3.35.838-5.73 1.24-9 0l-2-2a126.235 126.235 0 0 0-6-2v-1l1.898.035 2.477.027 2.46.036c2.214.047 2.214.047 4.165-1.098v-4Z" fill="#46A5CC"/><path d="M220 278h6c-1.186 3.375-2.276 5.647-5 8l1-1 2 1-1 4-5-2v2h-3c.25-2.313.25-2.313 1-5a499.397 499.397 0 0 1 4-3v-4Z" fill="#45A3CA"/><path d="m179 16 1.438 1.5L182 19c2.655-.23 2.655-.23 5-1l-1 5-7-1 3 4h-4v-3l-3-1v-5c1.813-.688 1.813-.688 4-1Z" fill="#73BFE8"/><path d="M211 343c.996 3.097.9 4.903 0 8 0 2.621.313 4.51 1 7l-4-1c.776 3.075.776 3.075 3 5l-1 3h-2c-2-2-2-2-2.195-3.945L206 355l3-1-1-7h2l1-4Z" fill="#46A5CC"/><path d="M149 0c1.191 3.574.735 5.509.063 9.188l-.59 3.292L148 15h-3c-1.444-7.985-1.444-7.985.313-12C147 1 147 1 149 0Z" fill="#8ACBEE"/><path d="M50 97c1.708 1.634 2.935 2.87 4 5h-2l.5 1.5c.707 3.534.56 6.897.5 10.5-4.875-1.75-4.875-1.75-6-4 .305-2.023.305-2.023.875-4.375l.555-2.336C49.57 98.711 49.57 98.711 50 97Z" fill="#4FAAD2"/><path d="M216 19h4v3h3v3l-1.875.313c-2.49.562-2.49.562-4.125 3.687v3c-2.155-1.58-4.106-3.106-6-5 1.25-1.563 1.25-1.563 3-3 2.188.313 2.188.313 4 1v-3h-2v-3Z" fill="#78C2E9"/><path d="M211 253c1.312 3.937.243 6.125-1 10h2v3c-4 0-4 0-5.793-1.21C205 263 205 263 205.074 260.772l.613-2.398.575-2.414c1.003-2.665 1.946-2.961 4.738-2.961Z" fill="#4DA7CF"/><path d="m126 253 2 1-5 4h2l-1 3 3 2h-2v2c-1.938-.313-1.938-.313-4-1l-1-3-6-1c3.56-2.967 7.652-5.381 12-7Z" fill="#53ACD4"/><path d="m35 238 5 1 1 4h2l-1-3h2c-.782 4.847-2.398 9.377-4 14-1.063-1.875-1.063-1.875-2-4 1-2 1-2 3-5l-1.875-.188C37 244 37 244 35.75 241.5 35 239 35 239 35 238Z" fill="#50AAD3"/><path d="M15 188c1.563 1.688 1.563 1.688 3 4-.313 2.75-.313 2.75-1 5h2l-1 3h-2v3l-3-1 1-3a99.768 99.768 0 0 0-1-6h2v-2l-4 1 1-3 3-1Z" fill="#46A5CC"/><path d="M180 41h3l1 4h-3v3l-3 1-1-1a69.603 69.603 0 0 0-4.063-.563L169 47l-1 2-3-2c3.314-2.21 4.345-2.225 8.188-2.125l2.73.055L178 45l2-4Z" fill="#59B2DC"/><path d="M279 234c3.175 2.402 5.858 4.617 8 8v2h2a136.38 136.38 0 0 1 2.781 4.2c2.135 3.153 4.694 5.955 7.219 8.8l-1 2c-5.117-5.476-9.971-11.08-14.563-17-.44-.564-.882-1.127-1.337-1.708-3.1-4.048-3.1-4.048-3.1-6.292Z" fill="#70BFE7"/><path d="M310 186h2v2l3-1 2 1v4l-4-2v2l3 2v3h-2l-2 2-2-3 2-3-3-1 .5-2.438c.532-2.29.532-2.29.5-3.562Z" fill="#58B1DB"/><path d="M257 245c2.018.963 4.015 1.97 6 3l3.188 1c2.754.98 3.99 1.773 5.812 4a84.76 84.76 0 0 1-7-2 298.87 298.87 0 0 0-6-1l-3 4-3-2 1-3h2l1-2-2-1 2-1Z" fill="#52A9D2"/><path d="m263 180 3 3 4-3 1 5h-2l-.813 1.813c-1.172 2.16-2.38 3.545-4.187 5.187l2-5h-3l-2-5 2-2Z" fill="#53ACD4"/><path d="M235 234c11.706 5.002 11.706 5.002 16 9l-6 2-1.625-2.313c-2.577-2.916-4.833-4.158-8.375-5.687v-3Z" fill="#4FA6CE"/><path d="m143 162 9 3h3v2l8 4-3 2c-3.125-.688-3.125-.688-6-2l-1-3a294.245 294.245 0 0 0-7-3c-1.938-1.688-1.938-1.688-3-3Z" fill="#5AAFD8"/><path d="M96 5h1l1 5h1l-1 10 3 1v5l-2 1-3-2c-.34-2.063-.34-2.063-.293-4.57l.03-2.715c.024-.937.05-1.874.076-2.84l.04-2.863C95.89 9.674 95.939 7.337 96 5Z" fill="#56B0D9"/><path d="M42 388c2.468 1.152 4.048 2.048 6 4l3-1v-2c2.375.313 2.375.313 5 1l2 3h-3l1 2a316.682 316.682 0 0 1-5.375-.313l-3.023-.175L45 394l-2-3h-2l1-3Z" fill="#46A5CC"/><path d="M123 247h4l1 6a205.189 205.189 0 0 1-3.75 2.063l-2.11 1.16c-2.501.908-3.673.66-6.14-.223l1.938-1.438c3.01-2.28 3.699-4.018 5.062-7.562Z" fill="#419CC5"/><path d="M199 136h2v2l3 1h-2v2h2a418.864 418.864 0 0 1 2.063 4.375l1.16 2.46L208 150l-1 2-1.813-2.5L203 147h-3l-1-11Z" fill="#51A8D2"/><path d="M319 0h8c0 3 0 3-1.063 4.563-2.75 2.04-5.643 2.629-8.937 3.437.523-2.763 1.109-5.326 2-8Z" fill="#76C1E9"/><path d="m271 238 7 2 1-2 4 2v5c-5.241-.411-8.24-1.24-12-5v-2Z" fill="#46A1CA"/><path d="m266 224 4 1c.125 5.75.125 5.75-1 8l2 1-1 3-5-2v-7h2l-1-4Z" fill="#46A1C9"/><path d="M371 357v3l7-2-1 5-1-2c-4.542 1.909-4.542 1.909-9 4l.125-2.313c.096-2.914.096-2.914-2.125-5.687 2.49-1.245 3.41-.777 6 0Z" fill="#5FB8E2"/><path d="M148 274c2.606 2.516 4.894 5.051 7 8l-2.25-.5c-3.836-.698-7.035-.562-10.75.5l-2-3 3.438-.813L147 277l1-3Z" fill="#46A5CC"/><path d="M133 159c3.763.61 6.835 1.688 10.25 3.375l2.64 1.273C148 165 148 165 149 168c-2.535-1.014-5.062-2.027-7.563-3.125-2.633-1.1-2.633-1.1-6.437-.875l-2-5Z" fill="#48A2CA"/><path d="M155 73h7l1 4c-3.445 2.296-5.938 2.54-10 3a84.76 84.76 0 0 1 2-7Z" fill="#409CC5"/><path d="M304 214c2.36 2.36 2.491 3.779 3 7h-8c-.688-1.813-.688-1.813-1-4 1.951-2.732 2.553-3 6-3Z" fill="#57B0DA"/><path d="M271 374v2l4 1h-4l-1 4-1-5h-2l2 11h-3v-12c2-1 2-1 5-1Z" fill="#419DC6"/><path d="m95 280 1 2h2v2h-2l2 4h-2v2h-7l2-2 .5-2.063L92 284l2-1 1-3Z" fill="#46A5CC"/><path d="m391 121 .75 1.875c1.475 2.508 2.599 3.048 5.25 4.125l2 1c-1.268 2.536-2.468 2.85-5 4l-2 1v-5l-3-1c0-4 0-4 2-6Z" fill="#58B1DB"/><path d="m119 291 1 3 1.758-.254c4.665-.608 8.596-.818 13.242.254l-2 4v-3l-5 1v1h-8c-1.063-1.875-1.063-1.875-2-4l1-2Z" fill="#46A5CC"/><path d="m256 65-.563 2.375c-.697 2.596-.697 2.596.563 4.625l-7-1-1-4c3.228-2.152 4.284-2.2 8-2Z" fill="#49A0C8"/><path d="M135 4c3.384 2.378 4.906 3.924 6 8-.188 2.188-.188 2.188-1 4l-3 2c-1.35-2.702-1.339-5.118-1.563-8.125l-.253-3.32L135 4Z" fill="#82C7EC"/><path d="M217 318h2v2h2v-2h2l-1 4h3l-1 5h-4v-5l-5-1 2-1v-2ZM14 95c3.125.75 3.125.75 6 2l1 2c2.322.407 4.657.744 7 1l-1 2h-2v2h-2l-1-2-3-1-1-2a128.606 128.606 0 0 0-7-2l3-2Z" fill="#46A5CC"/><path d="m211 19 1 2h2c-.188 1.875-.188 1.875-1 4-2.563 1.25-2.563 1.25-5 2-2-3-2-3-2-6l5-2Z" fill="#74C0E8"/><path d="M249 204h5c1 3 1 3 0 6l2 1v2h-6c0-2.621.313-4.51 1-7h-2v-2Z" fill="#419DC6"/><path d="m30 99 11 1v2h2v3h-6l-1-2h3v-2l-9 2v-4Z" fill="#46A5CC"/><path d="m89 312 7 1-1 4-2-1v2h-2l-1 2v-3h-2l1-5Z" fill="#409CC5"/><path d="M152 222h2v2h-2v2l2 1c-5.176 3.223-5.176 3.223-7 4l-3-1 1-3 2.375-.25c2.772-.478 2.772-.478 3.938-2.813L152 222Z" fill="#54AAD2"/><path d="m162 214 2 1v2h-3v3l2 1v3l-3-1-1-2-5 1c2.416-3.192 4.68-5.747 8-8Z" fill="#4DA6CE"/><path d="m246 188 2 1c-1.124 3.26-1.928 3.962-5.063 5.625L240 196l-1 2h-2v2h-3v-2h2l1-3c3.444-3 3.444-3 6-3l1-3 2-1Z" fill="#62B4DC"/><path d="M32 352h-2l-1 8h-3v-3l-2-2 1-3c3.133-1.044 3.99-.934 7 0Z" fill="#409CC5"/><path d="M99 254h5c-.593 3.392-1.767 5.21-4.063 7.75l-1.66 1.86L97 265l-2-4 4-2-1-2 1-3Z" fill="#419CC6"/><path d="m223 228 12 5-2 1-1 2-6-2v-3l-4-1 1-2Z" fill="#58ACD4"/><path d="M356 124c2.313-.313 2.313-.313 5 0 1.813 2.5 1.813 2.5 3 5h-3c-2.674 1.939-2.674 1.939-5 4l-4-3 7-3-3-1v-2Z" fill="#45A4CB"/><path d="m108 392 12 1-1 3h-6v3l-2-1v-3l-3 1v-4Z" fill="#47A4CB"/><path d="m153 340-1 5c-3.438-.813-3.438-.813-7-2l-1-3c3.069-1.534 5.7-.55 9 0Z" fill="#46A5CC"/><path d="M328 327c.125 3.375.125 3.375 0 7l-2 2v-2l-4 2v-4h2v-4c2-1 2-1 4-1ZM302 222l1 2 3-1v3h-2v2l-4 1c-1.063-1.875-1.063-1.875-2-4 1-2 1-2 4-3Z" fill="#58B1DB"/><path d="M294.188 150.375 296 151a271.11 271.11 0 0 1-2.813 3.5l-1.582 1.969C290 158 290 158 287 158c2.387-8.448 2.387-8.448 7.188-7.625Z" fill="#4CA3CC"/><path d="M368 115c.687 2.49 1 4.379 1 7h-3v-2h-2v2l-3-1c.313-1.875.313-1.875 1-4 3-2 3-2 6-2Z" fill="#46A5CC"/><path d="M120 1c2 3.75 2 3.75 2 6l-6 2v4h-2V8h2l.875-2.938C118 2 118 2 120 1Z" fill="#6FBEE7"/><path d="M360 352h11c-3.147 3.147-4.842 3.787-9 5l-3 1 1-4h2l-2-2Z" fill="#5FB8E2"/><path d="M141 231c0 3 0 3-1 6-1.96 1.352-1.96 1.352-4.375 2.625-.791.425-1.583.85-2.398 1.29C131 242 131 242 128 243v-2a136.38 136.38 0 0 1 4.2-2.781c3.153-2.135 5.955-4.694 8.8-7.219Z" fill="#55ABD4"/><path d="m308 139 4 1v5l-5 1-1-3-2-1h3l1-3Z" fill="#4EA8D1"/><path d="M266 115h2v2l4 2-1 2c-4.69 1.082-7.691 1.22-12-1v-1l7-1v-3Z" fill="#419DC6"/><path d="M152 14c3 0 3 0 6 1v3h-2v3l3 1c-1.813.688-1.813.688-4 1-1.75-1.063-1.75-1.063-3-3-.188-3.188-.188-3.188 0-6Z" fill="#72BFE8"/><path d="m162 8 2 2c-.375 1.938-.375 1.938-1 4v3l-3-1v2h-2c-.688-1.75-.688-1.75-1-4 1.445-2.34 3.056-4.056 5-6Z" fill="#88CAED"/><path d="m263 192 2 1-.563 2.875c-.724 3.024-.724 3.024.563 5.125h-2l-1 4-2-2h2c-.344-2.473-.344-2.473-1-5l-2-1 4-5Z" fill="#58AFD8"/><path d="M284 158c1.675.286 3.344.618 5 1l-6 8-2-4c.757-2.038 1.463-3.463 3-5Z" fill="#429CC5"/><path d="M99 142c1.46.45 2.918.91 4.375 1.375l2.46.773C108 145 108 145 110 147l1 3-3 1a1495.87 1495.87 0 0 1-4.5-3.938l-2.531-2.214L99 143v-1Z" fill="#46A0C9"/><path d="m349 134 6 1-1 1.875c-1.142 2.035-1.142 2.035-1 4.125h-2l-1 3v-5h-2l1-5Z" fill="#47A5CC"/><path d="M109 160c3.925 3.7 6.946 7.55 10 12l-3 1v-3l-3-1-1-2h-2l-1-7Z" fill="#50A7D0"/><path d="m26 93 4 2v3c-6.625.25-6.625.25-10-2v-2l1.875.625L24 95l2-2Z" fill="#46A5CC"/><path d="m335 30 4 4-1 2h-3l1 4h-3c-.18-3.947-.094-6.598 2-10Z" fill="#4EA8D0"/><path d="M242 377h2v10h-2v-2h-2c-.125-2.875-.125-2.875 0-6l2-2Z" fill="#48A6CD"/><path d="m155 342 .313 1.938L156 346l3 1v2l-3.375.375c-3.656.272-3.656.272-5.625 2.625.503-4.401 2.088-6.712 5-10Z" fill="#46A5CC"/><path d="M337 317c.875 2.125.875 2.125 1 4-1.938-.375-1.938-.375-4-1l-1-2h-4l-1 5c-1.033-3.1-1.178-4.056 0-7 3.815-1.272 5.393-.647 9 1Z" fill="#5EB7E1"/><path d="M280 256h2v2l2.75.313c3.354.709 4.675 1.54 7.25 3.687a87.796 87.796 0 0 0 4 2c-1.813.625-1.813.625-4 1l-3-2v-2l-2.813-.438C283 260 283 260 280 259v-3Z" fill="#66B9E1"/><path d="m297 150 3 1v2h-3l3 1v3h-2l-1 3c-1.375-2.265-2.08-3.457-1.688-6.125C296 152 296 152 297 150Zm-3 8 2 2-2 1v-3Z" fill="#419DC6"/><path d="M336 137v4l-6 1-1-2 2-1-3-3c3.623-1.208 4.641-.543 8 1Z" fill="#4EA9D1"/><path d="m261 84 5 1v2l3 1c-1.375 1.5-1.375 1.5-3 3h-2v-2h-2l-1-5Z" fill="#459EC7"/><path d="M28 64h2l-1 5 3-1 2 1v3c-4.75 1.125-4.75 1.125-7 0l1-8Z" fill="#46A5CC"/><path d="M193 0h3c2 2 2 2 2.313 5L198 8l-3 2V5h-2V0Z" fill="#B9DAFA"/><path d="M129 347h1v5h-6v-2h-2v2h-2l1-4 3.438.063c3.378.353 3.378.353 4.562-1.063Z" fill="#46A5CC"/><path d="M176 294h2v2l2 1c-1.563 1.563-1.563 1.563-4 3-3.75-.313-3.75-.313-7-1v-2l2.938-.375L175 296l1-2Z" fill="#46A4CB"/><path d="M300 260a90.488 90.488 0 0 1 4 4v2l3 1v2c-3.669-.706-6.705-2.277-10-4l2-1 2 1-1-5Z" fill="#8ACAEE"/><path d="m122 247 1 2-1 2 2 1-3 3-2-1a75.68 75.68 0 0 0-5 1l8-8Z" fill="#51AAD3"/><path d="m93 206 6 3-1 4h-4v3l-4-1v-2l6-2v-2l-3-1v-2ZM303 123h2l-1 8h-4l-1 2-2-2 2-3h2l2-5Z" fill="#46A5CC"/><path d="m233 347 5 4 2-1v3h-6l-1 3c-1.125-5.625-1.125-5.625 0-9Z" fill="#47A5CC"/><path d="m183 329 3 4-2 1-1 3h-3v-7l3 1v-2Z" fill="#46A5CC"/><path d="M203 320h3l-1 10h-2c-3-3.462-3-3.462-3-6h3v-4Z" fill="#46A4CB"/><path d="M76 281c2.5 2.313 2.5 2.313 5 5v3l-4-1 1-2-4-1 2-4Z" fill="#409CC5"/><path d="M172 202c3.984 2.163 6.89 4.712 10 8l-5 2-2-6h-3v-4Z" fill="#66B7DE"/><path d="m298 205 1 3h2v6l-3 1-2 2c.142-1.438.289-2.875.438-4.313.08-.8.162-1.6.246-2.425C297 208 297 208 298 205Z" fill="#57B0DA"/><path d="M330 186h2l2 6h-4l-1 2v-2h-2l1-4 2 1v-3Z" fill="#5EB7E1"/><path d="M37 157h3c2.68 4.019 2.156 6.242 2 11a141.4 141.4 0 0 1-5-5v-2h2v-3l-2-1Z" fill="#4FAAD2"/><path d="m191 23 3 4-3 1v3l-5 1-2-4h5l2-5Z" fill="#69BBE5"/><path d="m80 372 1 3 5-2 2 3-2.938.375L82 377l-1 2-2 1c-.125-5.75-.125-5.75 1-8ZM115 334l4 2-3 3-2-1v5l3-1 1 2h-5v-8h2v-2ZM121 332h2v2h2c0 3 0 3-1.938 5.063L121 341l-1 2c-1.236-4.45-1.236-4.45-.063-7.188L121 334v-2ZM236 327l2 2c-.354 2.263-.975 3.95-2 6h-5l-1-2h2v-2l3-1 1-3Z" fill="#46A5CC"/><path d="M173 205c1.938.75 1.938.75 4 2 .75 2.125.75 2.125 1 4-3 1-3 1-6 0l1-6Z" fill="#3F9AC4"/><path d="m236 34 8 1-1 4h-3l-1 2v-3l-3-1v-3Z" fill="#57B0DA"/><path d="M200 356h1v12l-5-1v-6l2-1v6h2l-.563-2.188c-.457-2.94-.172-4.953.563-7.812Z" fill="#46A5CC"/><path d="m103 325 1 7-4 1c-.688-2.313-.688-2.313-1-5 2.276-3 2.276-3 4-3Z" fill="#409CC5"/><path d="m179 187 1 3-2 2 2 4c-2.954-1.372-5.44-2.989-8-5 1.875-1.063 1.875-1.063 4-2l2 1 1-3Z" fill="#3B97C1"/><path d="m84 149 4 1-1 5-7 1 1-3 5-1-2-1v-2Z" fill="#3F9BC4"/><path d="M20 33c1.875.25 1.875.25 4 1 1.25 2.063 1.25 2.063 2 4h-2l-1 4-1-2h-3l.5-1.813c.611-2.3.611-2.3.5-5.187Z" fill="#46A5CC"/><path d="m194 28 6 1-2 1 3 4h-5v-2l-4-1 2-1v-2Z" fill="#68BBE5"/><path d="M388 390h2l-1 7 3 2h-6v-2l-2-2 2-2v2h2l-.563-1.938L387 391l1-1Z" fill="#56B0D9"/><path d="m221 241 6 2-.938 1.75c-.988 2.093-1.579 3.995-2.062 6.25l-2-1 1-6h-2v-3Zm-2 3h2l-1 3-1-3Z" fill="#46A3CB"/><path d="m357 182 3 2h-2v2h-2l-2 4-.375-1.875c-.497-2.316-.497-2.316-2.625-4.125 2.813-1.125 2.813-1.125 6-2Z" fill="#58B1DB"/><path d="m52 75 3 1 1 7-4-1c-1.125-4.75-1.125-4.75 0-7Z" fill="#4FAAD3"/><path d="m327 28 .313 1.938L328 32l3 1-2 1 1 6h-3c-1.177-3.677-1.145-7.164-1-11l1-1Z" fill="#4EA9D1"/><path d="m321 14 1 2h-3l-1 3-4-1c.313-1.938.313-1.938 1-4 3-1 3-1 6 0Z" fill="#56B0D9"/><path d="m179 387 1 2h3l1 4-5 1c-.934-3.01-1.044-3.867 0-7Z" fill="#46A5CC"/><path d="m125 314 1 3h2l1 6-4 1 1-4-2-1 1-5Z" fill="#409CC5"/><path d="M272 253c3.438.813 3.438.813 7 2l1 3h-6l-2-5Z" fill="#52ACD5"/><path d="M8 204c2.938.375 2.938.375 6 1l1 2-1 2c-2.563.625-2.563.625-5 1l-1-6Z" fill="#45A4CB"/><path d="M231 204h9l-3 4-6-1v-3Z" fill="#3E99C3"/><path d="M92 139c2.34 2.128 3.707 4.116 5 7l-4 2c-1.62-2.572-2.044-3.677-1.625-6.75L92 139Z" fill="#52A7D0"/><path d="m95 31 5 10-3 2c-2.053-3.448-3.063-5.317-2.688-9.375L95 31Z" fill="#46A4CB"/><path d="m77 32 4 1v2l2 1-3 3-3-1v-6Z" fill="#46A5CC"/><path d="M351 391c.313 2.313.313 2.313 0 5-2.5 1.813-2.5 1.813-5 3l-1-2c1.037-2.766 2.485-6 6-6Z" fill="#46A2CB"/><path d="m123 256 5 1v6l-5-2 2-1v-2l-4 1 2-3Z" fill="#409CC5"/><path d="M295 249h3l1 5h3l-1 3c-1.813-.188-1.813-.188-4-1-1.813-2.438-1.813-2.438-3-5l1-2Z" fill="#4DA9D1"/><path d="M167 174c1.459.477 2.917.957 4.375 1.438l2.46.808C176 177 176 177 178 178l-1 2h-5c-1.894-1.894-3.42-3.845-5-6Z" fill="#57AFD8"/><path d="M48 146h8l-1 4-3-1-1 2-4-3 1-2Z" fill="#50ABD3"/><path d="M272 122c1 3 1 3 .063 5.188L271 129h-5l1-5h4l1-2Z" fill="#419DC6"/><path d="M212 88c1.892 2.386 3.024 4.072 4 7l2 1-8-1v-5h2v-2Z" fill="#469FC7"/><path d="M332 90h2c3 6.875 3 6.875 3 8h-5v-8Z" fill="#409CC5"/><path d="m192 31 4 1v4l-3 1 2 1-1 2-2-1-1 2c-1-3-1-3 0-6h4v-2h-3v-2Z" fill="#51ABD3"/><path d="M126 0h6l-1 4-1-2-2 5c-1.46-2.647-2-3.894-2-7Z" fill="#60B8E2"/><path d="m28 394 4 2-1 3h-7l1-3h3v-2Z" fill="#409CC5"/><path d="m356 383 5 3c-.375 2.438-.375 2.438-1 5l-2 1-2-1v-3h2l-2-5Z" fill="#5DB6E0"/><path d="m65 364 5 2v5l-4-1v-2l-2-1 1-3ZM109 337h3l-1 7h-5v-2h3v-5Z" fill="#46A5CC"/><path d="M201 263h3c1 2 1 2 .25 5.063L203 271l-3 1 1-9Z" fill="#62B5DE"/><path d="m166 233 2 1c-.5 1.938-.5 1.938-2 4-2.697.688-5.202.82-8 1 1-3 1-3 4.438-4.75L166 233Z" fill="#5BB1D9"/><path d="m8 148 1 2 4-1v7c-3-1-3-1-4.188-2.875C8 151 8 151 8 148ZM74 374h4a108.817 108.817 0 0 1-1 7l-2 1v-5h-2l-1 2c0-3 0-3 2-5Z" fill="#46A5CC"/><path d="m247 351 1.688 1c2.615 1.131 4.493 1.157 7.312 1l-3 4-5-2v-2l-2-1 1-1Z" fill="#48A6CD"/><path d="m195 316 2 1v6l-6-1v-2l4-1v-3Z" fill="#45A4CB"/><path d="m12 286 2 1-2 4h2v2l-4 2c-.688-2.813-.688-2.813-1-6 1.438-1.875 1.438-1.875 3-3Z" fill="#4DA9D1"/><path d="m128 282 3 1h-2v2l3 1-1 3-5-1c.875-4.875.875-4.875 2-6ZM104 281l8 1v4l-6-2v-2l-2-1Z" fill="#46A5CC"/><path d="m235 234 11 5c-2.722 1.361-4.093.761-7 0-2.313-1.063-2.313-1.063-4-2v-3Z" fill="#56ADD6"/><path d="m282 158 2 1c-1.37 3.161-1.99 3.993-5 6l-3-1v-2a125.024 125.024 0 0 1 6-4Z" fill="#5EB1D9"/><path d="m360 147 1 7-4 1c0-3 0-3 1-5h-2v-2c2-1 2-1 4-1Z" fill="#57B0DA"/><path d="M16 128h4l1 2 3 1v3c-3.255-.349-4.019-1.021-6.25-3.563L16 128Z" fill="#46A4CB"/><path d="M9 128h2c2.152 3.228 2.2 4.284 2 8l-4-2v-6Z" fill="#46A5CC"/><path d="m357 36 4 1v4l-4-1v-4Z" fill="#4DA8D0"/><path d="m170 17 4 1v4h-5l1-5Zm1 1 1 2Zm-4 4 2 1Z" fill="#79C2E9"/><path d="m29 342 1 4 4-1v3l-5-1v2h-2v-3h2v-4Z" fill="#409CC5"/><path d="M236 342c3 1.813 3 1.813 6 4v3h-2l-1-2-3 1v-6ZM196 333l4 5c-2.606.93-3.642 1.15-6.25.063L192 337l-1 2v-3l1.938-.375L195 335l1-2Z" fill="#46A5CC"/><path d="M377 335c2.9.468 3.867.867 6 3h-2l1 3c-2.438-.813-2.438-.813-5-2l-1-3 1-1Z" fill="#58B1DB"/><path d="m212 323 3 1c-3.323 3.938-3.323 3.938-6.75 4.25L206 328v-2l6-1v-2Z" fill="#48A6CD"/><path d="M290 320h3l-1 8-4-4 2-4Z" fill="#4FAAD2"/><path d="M202 280h1l1 8-3-1-1 4c-.688-1.75-.688-1.75-1-4 1.438-2.25 1.438-2.25 3-4h-2c1-2 1-2 2-3Z" fill="#45A4CB"/><path d="M258 259v4h-6l-1-3c2.463-1.231 4.28-1.072 7-1Z" fill="#3F9BC5"/><path d="m279 229 5 1v3l-2 1 1 2c-1.938-.813-1.938-.813-4-2l-1-3 1-2Z" fill="#43A0C8"/><path d="M264 202c2.063.438 2.063.438 4 1h-3v2l2 1h-3v3h-3c1.875-5.875 1.875-5.875 3-7Z" fill="#4CA8D0"/><path d="m286 167 3 2c-.573 2.867-.861 3.861-3 6l-3-2 3-6Z" fill="#4DA9D1"/><path d="m50 136 5 1-1 6h-4l1-3 2 1v-2h-3v-3Z" fill="#50ABD3"/><path d="M16 396h6l1 3h-7v-3ZM24 389h6l1 2-1 2-1.813-.5c-2.3-.611-2.3-.611-5.187-.5l1-3Z" fill="#419DC6"/><path d="M360 373h2v5l-4 1c0-4 0-4 2-6ZM344 316l3 1v5h-3l-2-4 2-2Z" fill="#5FB8E2"/><path d="m22 247 3 1-1 5c-2.867-.573-3.861-.861-6-3h4v-3Z" fill="#45A4CB"/><path d="m96 146 1 2a135.916 135.916 0 0 1-3 7l-3-3 2-1-1-4 4-1Z" fill="#429DC6"/><path d="M49 65c2.567.395 4.671.836 7 2v3c-3.356-.6-5.378-1.846-8-4l1-1ZM301 390h3c.625 1.875.625 1.875 1 4l-2 2h-3v-2h2l-1-4Z" fill="#45A4CB"/><path d="m228 386 1 3h3v7l-2 1-2-2h2v-4l-2-1v-4ZM137 314h3l2 7-4-1 1-3h-2v-3Z" fill="#46A5CC"/><path d="M334 313h7v5l-3-1-1-2-3-1v-1Z" fill="#5FB8E2"/><path d="m62 301 1 2 4 2H57l1-3c2.063-.688 2.063-.688 4-1Z" fill="#409CC5"/><path d="m302 292 2 1v6l-5-1c.375-2.438.375-2.438 1-5l2-1Z" fill="#56B0D9"/><path d="m305 264 6 2v5c-3.412-1.137-4.119-2.043-6-5v-2Z" fill="#4CA7D0"/><path d="m287 250 8 4-2 2c-2.884-1.293-4.872-2.66-7-5l1-1Z" fill="#55AED7"/><path d="M130 186c3.243 2.39 5.509 4.205 7 8-3.403-1.012-4.757-1.648-6.813-4.625L129 187l1-1Z" fill="#53ABD4"/><path d="m275 164 3 1-1 5-5-2 3-4Z" fill="#50A8D1"/><path d="M159 159h5l1 2 3 2c-2.875.625-2.875.625-6 1l-2-2h2v-2l-3-1Z" fill="#3B96C1"/><path d="M341 144h2v4l4-1-1 3c-2.063.688-2.063.688-4 1-1-4.75-1-4.75-1-7Z" fill="#46A5CC"/><path d="m376 126 4 1-3 6h-2l1-7Z" fill="#59B2DC"/><path d="m223 101 3 1-1 4 2 1h-3l-2-3h-3c1.813-1.563 1.813-1.563 4-3Z" fill="#469FC7"/><path d="M358 48h2c.125 5.75.125 5.75-1 8h-2l1-8ZM7 371l5 1-3 2v2l-4-1 2-4Z" fill="#4EA9D1"/><path d="M140 345h2c1.43 2.354 2.087 3.48 1.625 6.25L143 353l-.313-1.938L142 349l-3-1 1-3Z" fill="#46A5CC"/><path d="m345 343 4 1-1 3v3l-4-2 1-5Z" fill="#5FB8E2"/><path d="m303 281 3 1-2 7-3-1h2v-3l-2-1h2v-3Z" fill="#5AB3DD"/><path d="m98 268 1 2-2 2-1 2h-3l-1-4 6-2Z" fill="#53ADD5"/><path d="M232 200h2v3l2 1-7 1c1.875-3.875 1.875-3.875 3-5Z" fill="#54ACD5"/><path d="m89 200 4 1 1 4-4 1v-3h-2l1-3Z" fill="#45A4CB"/><path d="M299 137c0 3 0 3-1.25 4.75-1.75 1.25-1.75 1.25-3.938.938L292 142l1.938-.313L296 141l1-3 2-1Z" fill="#3F9AC4"/><path d="m305 137 3 1-5 5-2-2 4-4Z" fill="#88C9ED"/><path d="M389 96c2 2 2 2 2.125 4.625L391 103l-3 1c-.042-2.333-.04-4.667 0-7l1-1ZM71 39c2 3 2 3 1.625 6.188L72 48l-4-5 2-1 1-3Z" fill="#46A5CC"/><path d="m292 38 2 3c-1.313 1.5-1.313 1.5-3 3h-3c.998-2.993 1.752-3.948 4-6Z" fill="#4EA9D1"/><path d="m311 368 2 1c-1.08 2.161-2.194 3.41-4 5h-2l1-5 3-1Z" fill="#46A5CC"/><path d="M312 357h4v2l3 1h-3l-1 2-1-2h-3l1-3Z" fill="#57B0DA"/><path d="m268 348 4 1 1 4-2-1-1 1-2-1v-4Z" fill="#4BA8D0"/><path d="m248 319 4 1-1 5-3-2v-4Z" fill="#419DC6"/><path d="m119 265 1 2-2 2v2h-3v-5l4-1Z" fill="#46A5CC"/><path d="m92 265 3 1-2 4-4-1 2-1 1-3Z" fill="#3F99C3"/><path d="M269 261c2.916 1.458 3.574 4.148 5 7l-2 1c-1.5-1.188-1.5-1.188-3-3-.188-2.688-.188-2.688 0-5Z" fill="#4EA9D2"/><path d="m53 208 4 1c-.313 1.938-.313 1.938-1 4l-3 1v-6Z" fill="#419DC6"/><path d="m53 196 3 1 1 3h-2l-1 3c-1.063-1.813-1.063-1.813-2-4l1-3Z" fill="#409CC5"/><path d="m185 193 2 2h-2v2l-5 2c.25-1.875.25-1.875 1-4 2.063-1.25 2.063-1.25 4-2Z" fill="#54ADD7"/><path d="M54 174h2v2h3v2l-5 1c-.563-1.938-.563-1.938-1-4l1-1Z" fill="#3F9BC5"/><path d="M302 170h2c2 3 2 3 2 6h-4v-6Z" fill="#47A4CB"/><path d="m376 146 2 1v5l-1-2-3 1v-4l2-1Z" fill="#58B1DB"/><path d="M147 131c1.563 1.75 1.563 1.75 3 4-.313 2.25-.313 2.25-1 4-1.563-1.75-1.563-1.75-3-4 .313-2.25.313-2.25 1-4ZM313 114l4 1v5h-3l-1-6Z" fill="#46A5CC"/><path d="M224 91h2v2h2v3h-4c-.563-1.938-.563-1.938-1-4l1-1Z" fill="#449EC6"/><path d="m287 72 4 2c-1 2-1 2-4 4a88.406 88.406 0 0 1-1-5l1-1Z" fill="#469EC7"/><path d="m86 57 1 3c-3.01.934-3.867 1.044-7 0v-2c2-1 2-1 6-1Z" fill="#4EA9D1"/><path d="m267 56 1.875 1.063L271 58l2-1-1 4-5-2v-3Z" fill="#4AA1C9"/></svg>